<?xml version="1.0" encoding="UTF-8" standalone="no"?>
<!DOCTYPE svg PUBLIC "-//W3C//DTD SVG 1.1//EN"
 "http://www.w3.org/Graphics/SVG/1.1/DTD/svg11.dtd">
<!-- Generated by graphviz version 2.40.1 (20161225.0304)
 -->
<!-- Title: self_sovereign_btcr_state_diagram Pages: 1 -->
<svg width="1107pt" height="520pt"
 viewBox="0.00 0.00 1107.00 519.91" xmlns="http://www.w3.org/2000/svg" xmlns:xlink="http://www.w3.org/1999/xlink">
<g id="graph0" class="graph" transform="scale(1 1) rotate(0) translate(72 447.9099)">
<title>self_sovereign_btcr_state_diagram</title>
<polygon fill="#ffffff" stroke="transparent" points="-72,72 -72,-447.9099 1035,-447.9099 1035,72 -72,72"/>
<g id="clust1" class="cluster">
<title>cluster_isographs_A</title>
<polygon fill="#ffffff" stroke="#000000" points="8,-8 8,-367.9099 367,-367.9099 367,-8 8,-8"/>
<text text-anchor="middle" x="187.5" y="-352.7099" font-family="Times,serif" font-size="14.00" fill="#000000">Example Isographs </text>
<text text-anchor="middle" x="187.5" y="-321.7099" font-family="Times,serif" font-size="14.00" fill="#000000"> (The below two state diagrams are logically the same. </text>
<text text-anchor="middle" x="187.5" y="-306.7099" font-family="Times,serif" font-size="14.00" fill="#000000"> One is in typical form, </text>
<text text-anchor="middle" x="187.5" y="-291.7099" font-family="Times,serif" font-size="14.00" fill="#000000"> and one includes the Bitcoin transaction as an explicit node, </text>
<text text-anchor="middle" x="187.5" y="-276.7099" font-family="Times,serif" font-size="14.00" fill="#000000"> which creates two drawn edges </text>
<text text-anchor="middle" x="187.5" y="-261.7099" font-family="Times,serif" font-size="14.00" fill="#000000"> for the single logical state transition. &#160;</text>
<text text-anchor="middle" x="187.5" y="-246.7099" font-family="Times,serif" font-size="14.00" fill="#000000"> These diagrams use the latter format.)</text>
</g>
<g id="clust2" class="cluster">
<title>cluster_state_shapes</title>
<polygon fill="#ffffff" stroke="#000000" points="375,-148 375,-262.3933 955,-262.3933 955,-148 375,-148"/>
<text text-anchor="middle" x="665" y="-247.1933" font-family="Times,serif" font-size="14.00" fill="#000000">Key for Shapes</text>
</g>
<!-- tx_X -->
<g id="node1" class="node">
<title>tx_X</title>
<polygon fill="#ffffff" stroke="#666666" points="328.5,-211.6967 211.5,-211.6967 211.5,-175.6967 328.5,-175.6967 328.5,-211.6967"/>
<text text-anchor="middle" x="270" y="-189.9967" font-family="Times,serif" font-size="14.00" fill="#000000">tx: Transaction X&#39;</text>
</g>
<!-- state_A_prime -->
<g id="node3" class="node">
<title>state_A_prime</title>
<path fill="#80a0ff" stroke="#80a0ff" d="M260,-52C260,-52 230,-52 230,-52 224,-52 218,-46 218,-40 218,-40 218,-28 218,-28 218,-22 224,-16 230,-16 230,-16 260,-16 260,-16 266,-16 272,-22 272,-28 272,-28 272,-40 272,-40 272,-46 266,-52 260,-52"/>
<text text-anchor="middle" x="245" y="-29" font-family="Times,serif" font-size="20.00" fill="#000000">A&#39;</text>
</g>
<!-- tx_X&#45;&gt;state_A_prime -->
<g id="edge3" class="edge">
<title>tx_X:se&#45;&gt;state_A_prime</title>
<path fill="none" stroke="#666666" d="M329,-175.6967C356.2751,-148.4215 343.7397,-122.7148 325,-89 315.417,-71.7591 297.8767,-58.7873 281.6572,-49.7844"/>
<polygon fill="#666666" stroke="#666666" points="282.8178,-46.4434 272.3302,-44.9401 279.5913,-52.6554 282.8178,-46.4434"/>
</g>
<!-- state_A -->
<g id="node2" class="node">
<title>state_A</title>
<ellipse fill="#80a0ff" stroke="#80a0ff" cx="48" cy="-193.6967" rx="27" ry="21.4286"/>
<text text-anchor="middle" x="48" y="-188.6967" font-family="Times,serif" font-size="20.00" fill="#000000">A</text>
</g>
<!-- state_A&#45;&gt;state_A -->
<g id="edge1" class="edge">
<title>state_A&#45;&gt;state_A</title>
<path fill="none" stroke="#666666" d="M72.0743,-203.989C83.2423,-205.1118 93,-201.681 93,-193.6967 93,-188.3322 88.5952,-185.0232 82.3174,-183.7698"/>
<polygon fill="#666666" stroke="#666666" points="82.1928,-180.2633 72.0743,-183.4043 81.9431,-187.2588 82.1928,-180.2633"/>
<text text-anchor="middle" x="142" y="-189.9967" font-family="Times,serif" font-size="14.00" fill="#000000">tx: Transaction X</text>
</g>
<!-- state_A_prime&#45;&gt;tx_X -->
<g id="edge2" class="edge">
<title>state_A_prime&#45;&gt;tx_X:sw</title>
<path fill="none" stroke="#666666" d="M209.0927,-52.458C195.4901,-61.4811 181.4889,-73.7258 174,-89 168.1303,-100.9718 169.235,-106.5472 174,-119 180.1863,-135.1674 190.886,-133.283 200,-148 205.2301,-156.4454 203.5344,-162.5339 206.3108,-169.0015"/>
<polygon fill="#666666" stroke="#666666" points="209.4035,-52.2653 220.2735,-50.8183 213.6525,-49.6297 217.9015,-46.9942 217.9015,-46.9942 217.9015,-46.9942 213.6525,-49.6297 215.5295,-43.1701 209.4035,-52.2653 209.4035,-52.2653"/>
<ellipse fill="none" stroke="#666666" cx="208.7053" cy="-172.4203" rx="4" ry="4"/>
<text text-anchor="middle" x="249.5" y="-107.8" font-family="Times,serif" font-size="14.00" fill="#000000">note different arrow styles </text>
<text text-anchor="middle" x="249.5" y="-92.8" font-family="Times,serif" font-size="14.00" fill="#000000"> on a single logical edge</text>
</g>
<!-- transaction -->
<g id="node4" class="node">
<title>transaction</title>
<polygon fill="#ffffff" stroke="#666666" points="946.5,-212.6967 789.5,-212.6967 789.5,-174.6967 946.5,-174.6967 946.5,-212.6967"/>
<text text-anchor="middle" x="868" y="-197.4967" font-family="Times,serif" font-size="14.00" fill="#000000">tx: Transaction X&#39; </text>
<text text-anchor="middle" x="868" y="-182.4967" font-family="Times,serif" font-size="14.00" fill="#000000"> (an edge between states)</text>
</g>
<!-- ending -->
<g id="node5" class="node">
<title>ending</title>
<polygon fill="#ff50b0" stroke="#ff50b0" points="767.867,-186.2408 767.867,-201.1525 745.0992,-211.6967 712.9008,-211.6967 690.133,-201.1525 690.133,-186.2408 712.9008,-175.6967 745.0992,-175.6967 767.867,-186.2408"/>
<polygon fill="none" stroke="#ff50b0" points="771.885,-183.69 771.885,-203.7033 745.9881,-215.6967 712.0119,-215.6967 686.115,-203.7033 686.115,-183.69 712.0119,-171.6967 745.9881,-171.6967 771.885,-183.69"/>
<text text-anchor="middle" x="729" y="-189.9967" font-family="Times,serif" font-size="14.00" fill="#000000">ending</text>
</g>
<!-- deciding -->
<g id="node6" class="node">
<title>deciding</title>
<polygon fill="#5070ff" stroke="#5070ff" points="609,-211.6967 549.0085,-193.6967 609,-175.6967 668.9915,-193.6967 609,-211.6967"/>
<polyline fill="none" stroke="#5070ff" points="560.5023,-197.1453 560.5023,-190.248 "/>
<polyline fill="none" stroke="#5070ff" points="597.5062,-179.1453 620.4938,-179.1453 "/>
<polyline fill="none" stroke="#5070ff" points="657.4977,-190.248 657.4977,-197.1453 "/>
<polyline fill="none" stroke="#5070ff" points="620.4938,-208.248 597.5062,-208.248 "/>
<text text-anchor="middle" x="609" y="-189.9967" font-family="Times,serif" font-size="14.00" fill="#000000">deciding</text>
</g>
<!-- resting -->
<g id="node7" class="node">
<title>resting</title>
<path fill="#80a0ff" stroke="#80a0ff" d="M519.5,-211.6967C519.5,-211.6967 488.5,-211.6967 488.5,-211.6967 482.5,-211.6967 476.5,-205.6967 476.5,-199.6967 476.5,-199.6967 476.5,-187.6967 476.5,-187.6967 476.5,-181.6967 482.5,-175.6967 488.5,-175.6967 488.5,-175.6967 519.5,-175.6967 519.5,-175.6967 525.5,-175.6967 531.5,-181.6967 531.5,-187.6967 531.5,-187.6967 531.5,-199.6967 531.5,-199.6967 531.5,-205.6967 525.5,-211.6967 519.5,-211.6967"/>
<text text-anchor="middle" x="504" y="-189.9967" font-family="Times,serif" font-size="14.00" fill="#000000">resting</text>
</g>
<!-- starting -->
<g id="node8" class="node">
<title>starting</title>
<ellipse fill="#a0ffa0" stroke="#a0ffa0" cx="421" cy="-193.6967" rx="37.8943" ry="37.8943"/>
<text text-anchor="middle" x="421" y="-189.9967" font-family="Times,serif" font-size="14.00" fill="#000000">starting</text>
</g>
</g>
</svg>
