<?xml version="1.0" encoding="UTF-8" standalone="no"?>
<!DOCTYPE svg PUBLIC "-//W3C//DTD SVG 1.1//EN"
 "http://www.w3.org/Graphics/SVG/1.1/DTD/svg11.dtd">
<!-- Generated by graphviz version 2.40.1 (20161225.0304)
 -->
<!-- Title: self_sovereign_identity_did_btcr_state_diagram Pages: 1 -->
<svg width="939pt" height="1246pt"
 viewBox="0.00 0.00 939.00 1246.00" xmlns="http://www.w3.org/2000/svg" xmlns:xlink="http://www.w3.org/1999/xlink">
<g id="graph0" class="graph" transform="scale(1 1) rotate(0) translate(72 1174)">
<title>self_sovereign_identity_did_btcr_state_diagram</title>
<polygon fill="#ffffff" stroke="transparent" points="-72,72 -72,-1174 867,-1174 867,72 -72,72"/>
<text text-anchor="middle" x="397.5" y="-33.4" font-family="Times,serif" font-size="12.00" fill="#888888"> rendered 20170721 from commit cfa5cef </text>
<text text-anchor="middle" x="397.5" y="-20.4" font-family="Times,serif" font-size="12.00" fill="#888888"> https://github.com/WebOfTrustInfo/btcr&#45;hackathon </text>
<text text-anchor="middle" x="397.5" y="-7.4" font-family="Times,serif" font-size="12.00" fill="#888888"> http://www.weboftrust.info/ </text>
<g id="clust1" class="cluster">
<title>cluster_title_floating</title>
<polygon fill="#ffffff" stroke="transparent" points="8,-982 8,-1094 401,-1094 401,-982 8,-982"/>
<text text-anchor="middle" x="204.5" y="-1070.8" font-family="Times,serif" font-size="24.00" fill="#000000">Self Sovereign Identity </text>
<text text-anchor="middle" x="204.5" y="-1044.8" font-family="Times,serif" font-size="24.00" fill="#000000"> State Diagram for DID:BTCR Method</text>
</g>
<!-- foo -->
<!-- begin -->
<g id="node2" class="node">
<title>begin</title>
<ellipse fill="#a0ffa0" stroke="#a0ffa0" cx="481" cy="-1008" rx="72" ry="72"/>
<text text-anchor="middle" x="481" y="-1003" font-family="Times,serif" font-size="20.00" fill="#000000">Begin</text>
</g>
<!-- tx_init_recovery -->
<g id="node7" class="node">
<title>tx_init_recovery</title>
<polygon fill="#ffffff" stroke="#00b000" points="576.5,-899 385.5,-899 385.5,-846 576.5,-846 576.5,-899"/>
<text text-anchor="middle" x="481" y="-883.8" font-family="Times,serif" font-size="14.00" fill="#000000">tx: Initialize DID </text>
<text text-anchor="middle" x="481" y="-868.8" font-family="Times,serif" font-size="14.00" fill="#000000"> (with recovery proof </text>
<text text-anchor="middle" x="481" y="-853.8" font-family="Times,serif" font-size="14.00" fill="#000000"> and required revocation proof)</text>
</g>
<!-- begin&#45;&gt;tx_init_recovery -->
<g id="edge1" class="edge">
<title>begin&#45;&gt;tx_init_recovery</title>
<path fill="none" stroke="#00b000" d="M481,-925.7963C481,-919.3635 481,-913.113 481,-907.2917"/>
<polygon fill="#00b000" stroke="#00b000" points="481.0001,-925.886 476.5,-935.8859 481,-930.886 481,-935.886 481,-935.886 481,-935.886 481,-930.886 485.5,-935.886 481.0001,-925.886 481.0001,-925.886"/>
<ellipse fill="none" stroke="#00b000" cx="481" cy="-903.0987" rx="4" ry="4"/>
</g>
<!-- valid_with_recovery_proof -->
<g id="node3" class="node">
<title>valid_with_recovery_proof</title>
<path fill="#80a0ff" stroke="#80a0ff" d="M577,-809C577,-809 385,-809 385,-809 379,-809 373,-803 373,-797 373,-797 373,-605 373,-605 373,-599 379,-593 385,-593 385,-593 577,-593 577,-593 583,-593 589,-599 589,-605 589,-605 589,-797 589,-797 589,-803 583,-809 577,-809"/>
<text text-anchor="middle" x="481" y="-707" font-family="Times,serif" font-size="20.00" fill="#000000">Valid DID </text>
<text text-anchor="middle" x="481" y="-685" font-family="Times,serif" font-size="20.00" fill="#000000"> (with recovery proof)</text>
</g>
<!-- tx_spend_with_recovery -->
<g id="node8" class="node">
<title>tx_spend_with_recovery</title>
<polygon fill="#ffffff" stroke="#a020f0" points="194,-555 10,-555 10,-519 194,-519 194,-555"/>
<text text-anchor="middle" x="102" y="-533.3" font-family="Times,serif" font-size="14.00" fill="#000000">tx: Noncompliant BTC Spend</text>
</g>
<!-- valid_with_recovery_proof&#45;&gt;tx_spend_with_recovery -->
<g id="edge7" class="edge">
<title>valid_with_recovery_proof&#45;&gt;tx_spend_with_recovery</title>
<path fill="none" stroke="#a020f0" d="M363.3999,-650.1124C292.0733,-619.2481 204.7906,-581.4793 151.3095,-558.3371"/>
<polygon fill="#a020f0" stroke="#a020f0" points="363.7234,-650.2523 371.1139,-658.3536 368.3122,-652.238 372.901,-654.2237 372.901,-654.2237 372.901,-654.2237 368.3122,-652.238 374.6881,-650.0937 363.7234,-650.2523 363.7234,-650.2523"/>
<ellipse fill="none" stroke="#a020f0" cx="147.3411" cy="-556.6199" rx="4" ry="4"/>
</g>
<!-- tx_revocation -->
<g id="node9" class="node">
<title>tx_revocation</title>
<polygon fill="#ffffff" stroke="#ff50b0" points="795,-300 585,-300 585,-264 795,-264 795,-300"/>
<text text-anchor="middle" x="690" y="-278.3" font-family="Times,serif" font-size="14.00" fill="#000000">tx: Explicit Immediate Revocation</text>
</g>
<!-- valid_with_recovery_proof&#45;&gt;tx_revocation -->
<g id="edge12" class="edge">
<title>valid_with_recovery_proof&#45;&gt;tx_revocation</title>
<path fill="none" stroke="#ff50b0" d="M596.6325,-617.1779C637.3349,-580.5497 678.1219,-533.8457 699,-481 725.4683,-414.0047 702.8888,-391.0257 704,-319 704.0564,-315.3475 703.485,-311.6155 702.5443,-307.9949"/>
<polygon fill="#ff50b0" stroke="#ff50b0" points="596.5267,-617.2715 586.0559,-620.5294 592.7825,-620.5853 589.0383,-623.8991 589.0383,-623.8991 589.0383,-623.8991 592.7825,-620.5853 592.0207,-627.2689 596.5267,-617.2715 596.5267,-617.2715"/>
<ellipse fill="none" stroke="#ff50b0" cx="701.2561" cy="-304.1164" rx="4" ry="4"/>
</g>
<!-- tx_update_with_recovery_proof -->
<g id="node11" class="node">
<title>tx_update_with_recovery_proof</title>
<polygon fill="#ffffff" stroke="#4060ff" stroke-width="5" points="565.5,-556 396.5,-556 396.5,-518 565.5,-518 565.5,-556"/>
<text text-anchor="middle" x="481" y="-540.8" font-family="Times,serif" font-size="14.00" fill="#000000">tx: Compliant Update </text>
<text text-anchor="middle" x="481" y="-525.8" font-family="Times,serif" font-size="14.00" fill="#000000"> (including recovery proof)</text>
</g>
<!-- valid_with_recovery_proof&#45;&gt;tx_update_with_recovery_proof -->
<g id="edge3" class="edge">
<title>valid_with_recovery_proof&#45;&gt;tx_update_with_recovery_proof</title>
<path fill="none" stroke="#4060ff" stroke-width="5" d="M481,-582.698C481,-576.1284 481,-569.9483 481,-564.3835"/>
<polygon fill="#4060ff" stroke="#4060ff" stroke-width="5" points="481.0001,-582.9808 476.5,-592.9808 481,-587.9808 481,-592.9808 481,-592.9808 481,-592.9808 481,-587.9808 485.5,-592.9808 481.0001,-582.9808 481.0001,-582.9808"/>
<ellipse fill="none" stroke="#4060ff" stroke-width="5" cx="481" cy="-560.1779" rx="4" ry="4"/>
</g>
<!-- settling_to_with_recovery -->
<g id="node4" class="node">
<title>settling_to_with_recovery</title>
<polygon fill="#5070ff" stroke="#5070ff" points="582,-481 474,-409 582,-337 690,-409 582,-481"/>
<polyline fill="none" stroke="#5070ff" points="483.9846,-415.6564 483.9846,-402.3436 "/>
<polyline fill="none" stroke="#5070ff" points="572.0154,-343.6564 591.9846,-343.6564 "/>
<polyline fill="none" stroke="#5070ff" points="680.0154,-402.3436 680.0154,-415.6564 "/>
<polyline fill="none" stroke="#5070ff" points="591.9846,-474.3436 572.0154,-474.3436 "/>
<text text-anchor="middle" x="582" y="-415" font-family="Times,serif" font-size="20.00" fill="#000000">Settling... </text>
<text text-anchor="middle" x="582" y="-393" font-family="Times,serif" font-size="20.00" fill="#000000"> (default 24 hours)</text>
</g>
<!-- settling_to_with_recovery&#45;&gt;valid_with_recovery_proof -->
<g id="edge5" class="edge">
<title>settling_to_with_recovery:w&#45;&gt;valid_with_recovery_proof</title>
<path fill="none" stroke="#4060ff" stroke-width="5" d="M474,-409C442,-409 455.6729,-454.768 474,-481 501.3796,-520.1891 547.6204,-478.8109 575,-518 589.1402,-538.2392 588.7905,-560.891 580.7451,-583.177"/>
<polygon fill="#4060ff" stroke="#4060ff" stroke-width="5" points="576.5873,-581.7855 576.8457,-592.6976 584.6845,-585.1019 576.5873,-581.7855"/>
<text text-anchor="middle" x="607.5" y="-533.3" font-family="Times,serif" font-size="14.00" fill="#4060ff">timeout</text>
<polyline fill="none" stroke="#4060ff" points="629,-529.5 586,-529.5 585.0518,-541.133 "/>
</g>
<!-- settling_to_with_recovery&#45;&gt;tx_revocation -->
<g id="edge6" class="edge">
<title>settling_to_with_recovery:e&#45;&gt;tx_revocation</title>
<path fill="none" stroke="#ff50b0" d="M698.238,-403.2951C707.023,-386.8774 700.5008,-338.745 695.1318,-308.2794"/>
<polygon fill="#ff50b0" stroke="#ff50b0" points="698.2211,-403.3067 687.438,-405.3005 694.1106,-406.1534 690,-409 690,-409 690,-409 694.1106,-406.1534 692.562,-412.6995 698.2211,-403.3067 698.2211,-403.3067"/>
<ellipse fill="none" stroke="#ff50b0" cx="694.3775" cy="-304.1315" rx="4" ry="4"/>
</g>
<!-- frozen -->
<g id="node5" class="node">
<title>frozen</title>
<polygon fill="#d060a0" stroke="#d060a0" points="187,-481 79,-409 187,-337 295,-409 187,-481"/>
<polyline fill="none" stroke="#d060a0" points="88.9846,-415.6564 88.9846,-402.3436 "/>
<polyline fill="none" stroke="#d060a0" points="177.0154,-343.6564 196.9846,-343.6564 "/>
<polyline fill="none" stroke="#d060a0" points="285.0154,-402.3436 285.0154,-415.6564 "/>
<polyline fill="none" stroke="#d060a0" points="196.9846,-474.3436 177.0154,-474.3436 "/>
<text text-anchor="middle" x="187" y="-415" font-family="Times,serif" font-size="20.00" fill="#000000">Frozen... </text>
<text text-anchor="middle" x="187" y="-393" font-family="Times,serif" font-size="20.00" fill="#000000"> (default 24 hours)</text>
</g>
<!-- revoked -->
<g id="node6" class="node">
<title>revoked</title>
<polygon fill="#ff50b0" stroke="#ff50b0" points="408,-121.1766 408,-180.8234 365.8234,-223 306.1766,-223 264,-180.8234 264,-121.1766 306.1766,-79 365.8234,-79 408,-121.1766"/>
<polygon fill="none" stroke="#ff50b0" points="412,-119.5198 412,-182.4802 367.4802,-227 304.5198,-227 260,-182.4802 260,-119.5198 304.5198,-75 367.4802,-75 412,-119.5198"/>
<text text-anchor="middle" x="336" y="-146" font-family="Times,serif" font-size="20.00" fill="#000000">Revoked</text>
</g>
<!-- frozen&#45;&gt;revoked -->
<g id="edge10" class="edge">
<title>frozen:w&#45;&gt;revoked</title>
<path fill="none" stroke="#ff50b0" d="M79,-409C-38.3805,-409 149.676,-273.2965 261.8755,-198.7265"/>
<polygon fill="#ff50b0" stroke="#ff50b0" points="264.0781,-201.4658 270.4834,-193.0264 260.2133,-195.6294 264.0781,-201.4658"/>
<text text-anchor="middle" x="185.5" y="-278.3" font-family="Times,serif" font-size="14.00" fill="#ff50b0">timeout</text>
<polyline fill="none" stroke="#ff50b0" points="207,-274.5 164,-274.5 169.3679,-263.109 "/>
</g>
<!-- tx_recovery -->
<g id="node10" class="node">
<title>tx_recovery</title>
<polygon fill="#ffffff" stroke="#666666" points="378,-556 212,-556 212,-518 378,-518 378,-556"/>
<text text-anchor="middle" x="295" y="-540.8" font-family="Times,serif" font-size="14.00" fill="#000000">tx: Recovery </text>
<text text-anchor="middle" x="295" y="-525.8" font-family="Times,serif" font-size="14.00" fill="#000000"> (DID follows this UTXO)</text>
</g>
<!-- frozen&#45;&gt;tx_recovery -->
<g id="edge9" class="edge">
<title>frozen:e&#45;&gt;tx_recovery</title>
<path fill="none" stroke="#666666" d="M305.196,-410.7398C331.951,-421.1991 317.3429,-476.4036 305.4335,-510.2608"/>
<polygon fill="#666666" stroke="#666666" points="304.8575,-410.6821 295.757,-404.5641 299.9288,-409.8411 295,-409 295,-409 295,-409 299.9288,-409.8411 294.243,-413.4359 304.8575,-410.6821 304.8575,-410.6821"/>
<ellipse fill="none" stroke="#666666" cx="304.0514" cy="-514.0763" rx="4" ry="4"/>
</g>
<!-- tx_init_recovery&#45;&gt;valid_with_recovery_proof -->
<g id="edge2" class="edge">
<title>tx_init_recovery&#45;&gt;valid_with_recovery_proof</title>
<path fill="none" stroke="#00b000" d="M481,-845.7031C481,-837.942 481,-828.9321 481,-819.2763"/>
<polygon fill="#00b000" stroke="#00b000" points="484.5001,-819.0052 481,-809.0052 477.5001,-819.0053 484.5001,-819.0052"/>
</g>
<!-- tx_spend_with_recovery&#45;&gt;frozen -->
<g id="edge8" class="edge">
<title>tx_spend_with_recovery&#45;&gt;frozen</title>
<path fill="none" stroke="#a020f0" d="M113.9981,-518.9322C122.9668,-505.4264 135.7658,-486.1527 148.1486,-467.5056"/>
<polygon fill="#a020f0" stroke="#a020f0" points="151.1771,-469.2718 153.7935,-459.0051 145.3458,-465.3994 151.1771,-469.2718"/>
</g>
<!-- tx_revocation&#45;&gt;revoked -->
<g id="edge13" class="edge">
<title>tx_revocation&#45;&gt;revoked</title>
<path fill="none" stroke="#ff50b0" d="M641.1495,-263.9225C584.6305,-243.0073 490.538,-208.1878 421.752,-182.7331"/>
<polygon fill="#ff50b0" stroke="#ff50b0" points="422.8136,-179.394 412.2205,-179.2059 420.3842,-185.959 422.8136,-179.394"/>
</g>
<!-- tx_recovery&#45;&gt;valid_with_recovery_proof -->
<g id="edge11" class="edge">
<title>tx_recovery&#45;&gt;valid_with_recovery_proof</title>
<path fill="none" stroke="#666666" d="M316.5752,-556.0233C329.2596,-567.2074 346.3973,-582.3181 364.8322,-598.5724"/>
<polygon fill="#666666" stroke="#666666" points="362.9875,-601.6122 372.803,-605.6005 367.617,-596.3617 362.9875,-601.6122"/>
</g>
<!-- tx_update_with_recovery_proof&#45;&gt;settling_to_with_recovery -->
<g id="edge4" class="edge">
<title>tx_update_with_recovery_proof&#45;&gt;settling_to_with_recovery</title>
<path fill="none" stroke="#4060ff" stroke-width="5" d="M496.1207,-517.8371C507.3401,-503.6185 523.2413,-483.4665 538.3169,-464.3607"/>
<polygon fill="#4060ff" stroke="#4060ff" stroke-width="5" points="541.9514,-466.8174 544.7113,-456.2569 535.0823,-461.3973 541.9514,-466.8174"/>
</g>
</g>
</svg>
