<?xml version="1.0" encoding="UTF-8" standalone="no"?>
<!DOCTYPE svg PUBLIC "-//W3C//DTD SVG 1.1//EN"
 "http://www.w3.org/Graphics/SVG/1.1/DTD/svg11.dtd">
<!-- Generated by graphviz version 2.40.1 (20161225.0304)
 -->
<!-- Title: self_sovereign_identity_did_btcr_state_diagram Pages: 1 -->
<svg width="1692pt" height="1246pt"
 viewBox="0.00 0.00 1692.00 1246.00" xmlns="http://www.w3.org/2000/svg" xmlns:xlink="http://www.w3.org/1999/xlink">
<g id="graph0" class="graph" transform="scale(1 1) rotate(0) translate(72 1174)">
<title>self_sovereign_identity_did_btcr_state_diagram</title>
<polygon fill="#ffffff" stroke="transparent" points="-72,72 -72,-1174 1620,-1174 1620,72 -72,72"/>
<text text-anchor="middle" x="774" y="-33.4" font-family="Times,serif" font-size="12.00" fill="#888888"> rendered 20170721 from commit cfa5cef </text>
<text text-anchor="middle" x="774" y="-20.4" font-family="Times,serif" font-size="12.00" fill="#888888"> https://github.com/WebOfTrustInfo/btcr&#45;hackathon </text>
<text text-anchor="middle" x="774" y="-7.4" font-family="Times,serif" font-size="12.00" fill="#888888"> http://www.weboftrust.info/ </text>
<g id="clust1" class="cluster">
<title>cluster_title_floating</title>
<polygon fill="#ffffff" stroke="transparent" points="390,-982 390,-1094 783,-1094 783,-982 390,-982"/>
<text text-anchor="middle" x="586.5" y="-1070.8" font-family="Times,serif" font-size="24.00" fill="#000000">Self Sovereign Identity </text>
<text text-anchor="middle" x="586.5" y="-1044.8" font-family="Times,serif" font-size="24.00" fill="#000000"> State Diagram for DID:BTCR Method</text>
</g>
<!-- foo -->
<!-- begin -->
<g id="node2" class="node">
<title>begin</title>
<ellipse fill="#a0ffa0" stroke="#a0ffa0" cx="863" cy="-1008" rx="72" ry="72"/>
<text text-anchor="middle" x="863" y="-1003" font-family="Times,serif" font-size="20.00" fill="#000000">Begin</text>
</g>
<!-- tx_init_simple -->
<g id="node9" class="node">
<title>tx_init_simple</title>
<polygon fill="#ffffff" stroke="#00b000" points="1124.5,-891.5 953.5,-891.5 953.5,-853.5 1124.5,-853.5 1124.5,-891.5"/>
<text text-anchor="middle" x="1039" y="-876.3" font-family="Times,serif" font-size="14.00" fill="#000000">tx: Initialize DID </text>
<text text-anchor="middle" x="1039" y="-861.3" font-family="Times,serif" font-size="14.00" fill="#000000"> (requires revocation proof)</text>
</g>
<!-- begin&#45;&gt;tx_init_simple -->
<g id="edge1" class="edge">
<title>begin&#45;&gt;tx_init_simple</title>
<path fill="none" stroke="#00b000" d="M928.4426,-957.6166C955.4684,-936.8099 985.538,-913.6597 1007.4871,-896.7614"/>
<polygon fill="#00b000" stroke="#00b000" points="928.0659,-957.9066 917.397,-960.4413 924.104,-960.9568 920.1422,-964.007 920.1422,-964.007 920.1422,-964.007 924.104,-960.9568 922.8873,-967.5727 928.0659,-957.9066 928.0659,-957.9066"/>
<ellipse fill="none" stroke="#00b000" cx="1010.8563" cy="-894.1675" rx="4" ry="4"/>
</g>
<!-- tx_init_recovery -->
<g id="node10" class="node">
<title>tx_init_recovery</title>
<polygon fill="#ffffff" stroke="#00b000" points="837.5,-899 646.5,-899 646.5,-846 837.5,-846 837.5,-899"/>
<text text-anchor="middle" x="742" y="-883.8" font-family="Times,serif" font-size="14.00" fill="#000000">tx: Initialize DID </text>
<text text-anchor="middle" x="742" y="-868.8" font-family="Times,serif" font-size="14.00" fill="#000000"> (with recovery proof </text>
<text text-anchor="middle" x="742" y="-853.8" font-family="Times,serif" font-size="14.00" fill="#000000"> and required revocation proof)</text>
</g>
<!-- begin&#45;&gt;tx_init_recovery -->
<g id="edge2" class="edge">
<title>begin&#45;&gt;tx_init_recovery</title>
<path fill="none" stroke="#00b000" d="M808.05,-946.4651C795.4013,-932.3006 782.4263,-917.7707 771.3615,-905.38"/>
<polygon fill="#00b000" stroke="#00b000" points="808.1692,-946.5986 811.4734,-957.0548 811.4996,-950.328 814.8299,-954.0575 814.8299,-954.0575 814.8299,-954.0575 811.4996,-950.328 818.1864,-951.0601 808.1692,-946.5986 808.1692,-946.5986"/>
<ellipse fill="none" stroke="#00b000" cx="768.4256" cy="-902.0923" rx="4" ry="4"/>
</g>
<!-- valid_simple -->
<g id="node3" class="node">
<title>valid_simple</title>
<path fill="#80a0ff" stroke="#80a0ff" d="M1234,-809C1234,-809 1042,-809 1042,-809 1036,-809 1030,-803 1030,-797 1030,-797 1030,-605 1030,-605 1030,-599 1036,-593 1042,-593 1042,-593 1234,-593 1234,-593 1240,-593 1246,-599 1246,-605 1246,-605 1246,-797 1246,-797 1246,-803 1240,-809 1234,-809"/>
<text text-anchor="middle" x="1138" y="-696" font-family="Times,serif" font-size="20.00" fill="#000000">Valid DID</text>
</g>
<!-- tx_spend_for_simple -->
<g id="node11" class="node">
<title>tx_spend_for_simple</title>
<polygon fill="#ffffff" stroke="#ff50b0" points="1548,-555 1364,-555 1364,-519 1548,-519 1548,-555"/>
<text text-anchor="middle" x="1456" y="-533.3" font-family="Times,serif" font-size="14.00" fill="#000000">tx: Noncompliant BTC Spend</text>
</g>
<!-- valid_simple&#45;&gt;tx_spend_for_simple -->
<g id="edge17" class="edge">
<title>valid_simple&#45;&gt;tx_spend_for_simple</title>
<path fill="none" stroke="#ff50b0" d="M1255.0937,-640.6121C1310.4737,-612.0513 1373.1575,-579.7238 1413.5602,-558.8872"/>
<polygon fill="#ff50b0" stroke="#ff50b0" points="1254.9917,-640.6646 1244.0414,-641.2488 1250.5479,-642.9564 1246.104,-645.2482 1246.104,-645.2482 1246.104,-645.2482 1250.5479,-642.9564 1248.1667,-649.2477 1254.9917,-640.6646 1254.9917,-640.6646"/>
<ellipse fill="none" stroke="#ff50b0" cx="1417.2831" cy="-556.9672" rx="4" ry="4"/>
</g>
<!-- tx_revocation -->
<g id="node13" class="node">
<title>tx_revocation</title>
<polygon fill="#ffffff" stroke="#ff50b0" points="854,-300 644,-300 644,-264 854,-264 854,-300"/>
<text text-anchor="middle" x="749" y="-278.3" font-family="Times,serif" font-size="14.00" fill="#000000">tx: Explicit Immediate Revocation</text>
</g>
<!-- valid_simple&#45;&gt;tx_revocation -->
<g id="edge25" class="edge">
<title>valid_simple&#45;&gt;tx_revocation</title>
<path fill="none" stroke="#ff50b0" d="M1254.2431,-633.1493C1295.0449,-600.3418 1324.9614,-559.2017 1299,-518 1205.0015,-368.8205 993.9475,-313.7165 862.3291,-293.5174"/>
<polygon fill="#ff50b0" stroke="#ff50b0" points="1254.1216,-633.2438 1243.4664,-635.8355 1250.1761,-636.3152 1246.2306,-639.3865 1246.2306,-639.3865 1246.2306,-639.3865 1250.1761,-636.3152 1248.9948,-642.9375 1254.1216,-633.2438 1254.1216,-633.2438"/>
<ellipse fill="none" stroke="#ff50b0" cx="858.124" cy="-292.8871" rx="4" ry="4"/>
</g>
<!-- tx_update_simple -->
<g id="node15" class="node">
<title>tx_update_simple</title>
<polygon fill="#ffffff" stroke="#4060ff" stroke-width="5" points="1228.5,-555 1047.5,-555 1047.5,-519 1228.5,-519 1228.5,-555"/>
<text text-anchor="middle" x="1138" y="-533.3" font-family="Times,serif" font-size="14.00" fill="#000000">tx: Simple Compliant Update</text>
</g>
<!-- valid_simple&#45;&gt;tx_update_simple -->
<g id="edge11" class="edge">
<title>valid_simple&#45;&gt;tx_update_simple</title>
<path fill="none" stroke="#4060ff" stroke-width="5" d="M1131.8737,-582.7622C1132.1301,-575.7891 1132.4654,-569.2537 1132.8797,-563.4257"/>
<polygon fill="#4060ff" stroke="#4060ff" stroke-width="5" points="1131.867,-582.9855 1127.0637,-592.8434 1131.7143,-587.9831 1131.5616,-592.9808 1131.5616,-592.9808 1131.5616,-592.9808 1131.7143,-587.9831 1136.0595,-593.1182 1131.867,-582.9855 1131.867,-582.9855"/>
<ellipse fill="none" stroke="#4060ff" stroke-width="5" cx="1133.2127" cy="-559.411" rx="4" ry="4"/>
</g>
<!-- tx_update_cross_to_with_recovery_from_simple -->
<g id="node18" class="node">
<title>tx_update_cross_to_with_recovery_from_simple</title>
<polygon fill="#ffffff" stroke="#4090ff" points="1029,-556 875,-556 875,-518 1029,-518 1029,-556"/>
<text text-anchor="middle" x="952" y="-540.8" font-family="Times,serif" font-size="14.00" fill="#000000">tx: Compliant Update </text>
<text text-anchor="middle" x="952" y="-525.8" font-family="Times,serif" font-size="14.00" fill="#000000"> (adding recovery proof)</text>
</g>
<!-- valid_simple&#45;&gt;tx_update_cross_to_with_recovery_from_simple -->
<g id="edge13" class="edge">
<title>valid_simple&#45;&gt;tx_update_cross_to_with_recovery_from_simple</title>
<path fill="none" stroke="#4090ff" d="M1021.8322,-598.5724C1006.2778,-584.8578 991.6468,-571.9574 979.8351,-561.5428"/>
<polygon fill="#4090ff" stroke="#4090ff" points="1022.3023,-598.9869 1026.8269,-608.9759 1026.0527,-602.2937 1029.803,-605.6005 1029.803,-605.6005 1029.803,-605.6005 1026.0527,-602.2937 1032.7791,-602.2252 1022.3023,-598.9869 1022.3023,-598.9869"/>
<ellipse fill="none" stroke="#4090ff" cx="976.5755" cy="-558.6687" rx="4" ry="4"/>
</g>
<!-- valid_with_recovery_proof -->
<g id="node4" class="node">
<title>valid_with_recovery_proof</title>
<path fill="#80a0ff" stroke="#80a0ff" d="M575,-809C575,-809 383,-809 383,-809 377,-809 371,-803 371,-797 371,-797 371,-605 371,-605 371,-599 377,-593 383,-593 383,-593 575,-593 575,-593 581,-593 587,-599 587,-605 587,-605 587,-797 587,-797 587,-803 581,-809 575,-809"/>
<text text-anchor="middle" x="479" y="-707" font-family="Times,serif" font-size="20.00" fill="#000000">Valid DID </text>
<text text-anchor="middle" x="479" y="-685" font-family="Times,serif" font-size="20.00" fill="#000000"> (with recovery proof)</text>
</g>
<!-- tx_spend_with_recovery -->
<g id="node12" class="node">
<title>tx_spend_with_recovery</title>
<polygon fill="#ffffff" stroke="#a020f0" points="184,-555 0,-555 0,-519 184,-519 184,-555"/>
<text text-anchor="middle" x="92" y="-533.3" font-family="Times,serif" font-size="14.00" fill="#000000">tx: Noncompliant BTC Spend</text>
</g>
<!-- valid_with_recovery_proof&#45;&gt;tx_spend_with_recovery -->
<g id="edge19" class="edge">
<title>valid_with_recovery_proof&#45;&gt;tx_spend_with_recovery</title>
<path fill="none" stroke="#a020f0" d="M361.6666,-651.2773C288.2542,-620.1672 197.4372,-581.6814 142.1565,-558.2549"/>
<polygon fill="#a020f0" stroke="#a020f0" points="361.7343,-651.306 369.1859,-659.3512 366.338,-653.2569 370.9417,-655.2079 370.9417,-655.2079 370.9417,-655.2079 366.338,-653.2569 372.6976,-651.0645 361.7343,-651.306 361.7343,-651.306"/>
<ellipse fill="none" stroke="#a020f0" cx="138.2804" cy="-556.6124" rx="4" ry="4"/>
</g>
<!-- valid_with_recovery_proof&#45;&gt;tx_revocation -->
<g id="edge24" class="edge">
<title>valid_with_recovery_proof&#45;&gt;tx_revocation</title>
<path fill="none" stroke="#ff50b0" d="M421.6109,-583.2689C392.1797,-504.0723 373.6096,-402.541 433,-337 459.8869,-307.3286 556.2879,-293.637 635.6173,-287.3351"/>
<polygon fill="#ff50b0" stroke="#ff50b0" points="421.6869,-583.4684 421.0446,-594.4155 423.4682,-588.1404 425.2494,-592.8124 425.2494,-592.8124 425.2494,-592.8124 423.4682,-588.1404 429.4542,-591.2092 421.6869,-583.4684 421.6869,-583.4684"/>
<ellipse fill="none" stroke="#ff50b0" cx="639.7385" cy="-287.0183" rx="4" ry="4"/>
</g>
<!-- tx_update_with_recovery_proof -->
<g id="node16" class="node">
<title>tx_update_with_recovery_proof</title>
<polygon fill="#ffffff" stroke="#4060ff" stroke-width="5" points="672.5,-556 503.5,-556 503.5,-518 672.5,-518 672.5,-556"/>
<text text-anchor="middle" x="588" y="-540.8" font-family="Times,serif" font-size="14.00" fill="#000000">tx: Compliant Update </text>
<text text-anchor="middle" x="588" y="-525.8" font-family="Times,serif" font-size="14.00" fill="#000000"> (including recovery proof)</text>
</g>
<!-- valid_with_recovery_proof&#45;&gt;tx_update_with_recovery_proof -->
<g id="edge5" class="edge">
<title>valid_with_recovery_proof&#45;&gt;tx_update_with_recovery_proof</title>
<path fill="none" stroke="#4060ff" stroke-width="5" d="M556.3731,-584.5855C561.51,-576.8565 566.3158,-569.6258 570.5537,-563.2495"/>
<polygon fill="#4060ff" stroke="#4060ff" stroke-width="5" points="556.3286,-584.6525 547.0455,-590.4899 553.5609,-588.8166 550.7932,-592.9808 550.7932,-592.9808 550.7932,-592.9808 553.5609,-588.8166 554.541,-595.4717 556.3286,-584.6525 556.3286,-584.6525"/>
<ellipse fill="none" stroke="#4060ff" stroke-width="5" cx="573.0396" cy="-559.5092" rx="4" ry="4"/>
</g>
<!-- tx_update_cross_to_simple_from_with_recovery -->
<g id="node17" class="node">
<title>tx_update_cross_to_simple_from_with_recovery</title>
<polygon fill="#ffffff" stroke="#4090ff" points="857,-556 691,-556 691,-518 857,-518 857,-556"/>
<text text-anchor="middle" x="774" y="-540.8" font-family="Times,serif" font-size="14.00" fill="#000000">tx: Compliant Update </text>
<text text-anchor="middle" x="774" y="-525.8" font-family="Times,serif" font-size="14.00" fill="#000000"> (dropping recovery proof)</text>
</g>
<!-- valid_with_recovery_proof&#45;&gt;tx_update_cross_to_simple_from_with_recovery -->
<g id="edge9" class="edge">
<title>valid_with_recovery_proof&#45;&gt;tx_update_cross_to_simple_from_with_recovery</title>
<path fill="none" stroke="#4090ff" d="M596.0563,-635.9247C644.1546,-609.1852 696.7686,-579.9354 732.2164,-560.2288"/>
<polygon fill="#4090ff" stroke="#4090ff" points="595.9122,-636.0047 584.9855,-636.9306 591.5421,-638.4342 587.172,-640.8637 587.172,-640.8637 587.172,-640.8637 591.5421,-638.4342 589.3586,-644.7968 595.9122,-636.0047 595.9122,-636.0047"/>
<ellipse fill="none" stroke="#4090ff" cx="736.0162" cy="-558.1165" rx="4" ry="4"/>
</g>
<!-- settling_to_with_recovery -->
<g id="node5" class="node">
<title>settling_to_with_recovery</title>
<polygon fill="#5070ff" stroke="#5070ff" points="550,-481 442,-409 550,-337 658,-409 550,-481"/>
<polyline fill="none" stroke="#5070ff" points="451.9846,-415.6564 451.9846,-402.3436 "/>
<polyline fill="none" stroke="#5070ff" points="540.0154,-343.6564 559.9846,-343.6564 "/>
<polyline fill="none" stroke="#5070ff" points="648.0154,-402.3436 648.0154,-415.6564 "/>
<polyline fill="none" stroke="#5070ff" points="559.9846,-474.3436 540.0154,-474.3436 "/>
<text text-anchor="middle" x="550" y="-415" font-family="Times,serif" font-size="20.00" fill="#000000">Settling... </text>
<text text-anchor="middle" x="550" y="-393" font-family="Times,serif" font-size="20.00" fill="#000000"> (default 24 hours)</text>
</g>
<!-- settling_to_with_recovery&#45;&gt;valid_with_recovery_proof -->
<g id="edge7" class="edge">
<title>settling_to_with_recovery:w&#45;&gt;valid_with_recovery_proof</title>
<path fill="none" stroke="#4060ff" stroke-width="5" d="M442,-409C405.1108,-409 421.6008,-501.88 442.9933,-582.8736"/>
<polygon fill="#4060ff" stroke="#4060ff" stroke-width="5" points="438.8082,-584.1587 445.6232,-592.6849 447.2599,-581.8932 438.8082,-584.1587"/>
<text text-anchor="middle" x="457.5" y="-533.3" font-family="Times,serif" font-size="14.00" fill="#4060ff">timeout</text>
<polyline fill="none" stroke="#4060ff" points="479,-529.5 436,-529.5 433.0741,-542.5124 "/>
</g>
<!-- settling_to_with_recovery&#45;&gt;tx_revocation -->
<g id="edge8" class="edge">
<title>settling_to_with_recovery:e&#45;&gt;tx_revocation</title>
<path fill="none" stroke="#ff50b0" d="M664.6703,-401.4683C668.3773,-385.2591 660.4253,-347.6715 667,-337 675.2694,-323.5777 688.1803,-312.701 701.3305,-304.2731"/>
<polygon fill="#ff50b0" stroke="#ff50b0" points="664.6301,-401.5138 654.6312,-406.0165 661.315,-405.2569 658,-409 658,-409 658,-409 661.315,-405.2569 661.3688,-411.9835 664.6301,-401.5138 664.6301,-401.5138"/>
<ellipse fill="none" stroke="#ff50b0" cx="704.7889" cy="-302.1683" rx="4" ry="4"/>
</g>
<!-- settling_to_simple -->
<g id="node6" class="node">
<title>settling_to_simple</title>
<polygon fill="#40a0ff" stroke="#40a0ff" points="784,-481 676,-409 784,-337 892,-409 784,-481"/>
<polyline fill="none" stroke="#40a0ff" points="685.9846,-415.6564 685.9846,-402.3436 "/>
<polyline fill="none" stroke="#40a0ff" points="774.0154,-343.6564 793.9846,-343.6564 "/>
<polyline fill="none" stroke="#40a0ff" points="882.0154,-402.3436 882.0154,-415.6564 "/>
<polyline fill="none" stroke="#40a0ff" points="793.9846,-474.3436 774.0154,-474.3436 "/>
<text text-anchor="middle" x="784" y="-415" font-family="Times,serif" font-size="20.00" fill="#000000">Settling... </text>
<text text-anchor="middle" x="784" y="-393" font-family="Times,serif" font-size="20.00" fill="#000000"> (default 24 hours)</text>
</g>
<!-- settling_to_simple&#45;&gt;valid_simple -->
<g id="edge15" class="edge">
<title>settling_to_simple:w&#45;&gt;valid_simple</title>
<path fill="none" stroke="#4090ff" d="M676,-409C668,-409 670.5321,-475.1603 676,-481 697.3861,-503.8404 1216.6139,-495.1596 1238,-518 1256.0227,-537.2482 1255.6964,-560.3563 1246.003,-583.57"/>
<polygon fill="#4090ff" stroke="#4090ff" points="1242.7463,-582.2713 1241.6686,-592.8112 1249.0839,-585.2438 1242.7463,-582.2713"/>
<text text-anchor="middle" x="1273.5" y="-533.3" font-family="Times,serif" font-size="14.00" fill="#4090ff">timeout</text>
<polyline fill="none" stroke="#4090ff" points="1295,-529.5 1252,-529.5 1251.2562,-542.0996 "/>
</g>
<!-- settling_to_simple&#45;&gt;tx_revocation -->
<g id="edge16" class="edge">
<title>settling_to_simple:e&#45;&gt;tx_revocation</title>
<path fill="none" stroke="#ff50b0" d="M901.9306,-406.9882C920.463,-397.8952 907.8518,-360.0807 892,-337 883.4639,-324.5713 854.4439,-312.3643 824.7564,-302.6202"/>
<polygon fill="#ff50b0" stroke="#ff50b0" points="901.8009,-407.0143 891.1065,-404.5896 896.9004,-408.0072 892,-409 892,-409 892,-409 896.9004,-408.0072 892.8935,-413.4104 901.8009,-407.0143 901.8009,-407.0143"/>
<ellipse fill="none" stroke="#ff50b0" cx="820.6049" cy="-301.2895" rx="4" ry="4"/>
</g>
<!-- frozen -->
<g id="node7" class="node">
<title>frozen</title>
<polygon fill="#d060a0" stroke="#d060a0" points="177,-481 69,-409 177,-337 285,-409 177,-481"/>
<polyline fill="none" stroke="#d060a0" points="78.9846,-415.6564 78.9846,-402.3436 "/>
<polyline fill="none" stroke="#d060a0" points="167.0154,-343.6564 186.9846,-343.6564 "/>
<polyline fill="none" stroke="#d060a0" points="275.0154,-402.3436 275.0154,-415.6564 "/>
<polyline fill="none" stroke="#d060a0" points="186.9846,-474.3436 167.0154,-474.3436 "/>
<text text-anchor="middle" x="177" y="-415" font-family="Times,serif" font-size="20.00" fill="#000000">Frozen... </text>
<text text-anchor="middle" x="177" y="-393" font-family="Times,serif" font-size="20.00" fill="#000000"> (default 24 hours)</text>
</g>
<!-- revoked -->
<g id="node8" class="node">
<title>revoked</title>
<polygon fill="#ff50b0" stroke="#ff50b0" points="821,-121.1766 821,-180.8234 778.8234,-223 719.1766,-223 677,-180.8234 677,-121.1766 719.1766,-79 778.8234,-79 821,-121.1766"/>
<polygon fill="none" stroke="#ff50b0" points="825,-119.5198 825,-182.4802 780.4802,-227 717.5198,-227 673,-182.4802 673,-119.5198 717.5198,-75 780.4802,-75 825,-119.5198"/>
<text text-anchor="middle" x="749" y="-146" font-family="Times,serif" font-size="20.00" fill="#000000">Revoked</text>
</g>
<!-- frozen&#45;&gt;revoked -->
<g id="edge22" class="edge">
<title>frozen:w&#45;&gt;revoked</title>
<path fill="none" stroke="#ff50b0" d="M69,-409C37,-409 49.5857,-362.4379 69,-337 141.2322,-242.3568 496.4104,-184.1407 662.7574,-161.6461"/>
<polygon fill="#ff50b0" stroke="#ff50b0" points="663.5066,-165.0771 672.9533,-160.2802 662.5771,-158.1391 663.5066,-165.0771"/>
<text text-anchor="middle" x="212.5" y="-278.3" font-family="Times,serif" font-size="14.00" fill="#ff50b0">timeout</text>
<polyline fill="none" stroke="#ff50b0" points="234,-274.5 191,-274.5 204.6202,-259.1333 "/>
</g>
<!-- tx_recovery -->
<g id="node14" class="node">
<title>tx_recovery</title>
<polygon fill="#ffffff" stroke="#666666" points="368,-556 202,-556 202,-518 368,-518 368,-556"/>
<text text-anchor="middle" x="285" y="-540.8" font-family="Times,serif" font-size="14.00" fill="#000000">tx: Recovery </text>
<text text-anchor="middle" x="285" y="-525.8" font-family="Times,serif" font-size="14.00" fill="#000000"> (DID follows this UTXO)</text>
</g>
<!-- frozen&#45;&gt;tx_recovery -->
<g id="edge21" class="edge">
<title>frozen:e&#45;&gt;tx_recovery</title>
<path fill="none" stroke="#666666" d="M295.196,-410.7398C321.951,-421.1991 307.3429,-476.4036 295.4335,-510.2608"/>
<polygon fill="#666666" stroke="#666666" points="294.8575,-410.6821 285.757,-404.5641 289.9288,-409.8411 285,-409 285,-409 285,-409 289.9288,-409.8411 284.243,-413.4359 294.8575,-410.6821 294.8575,-410.6821"/>
<ellipse fill="none" stroke="#666666" cx="294.0514" cy="-514.0763" rx="4" ry="4"/>
</g>
<!-- tx_init_simple&#45;&gt;valid_simple -->
<g id="edge3" class="edge">
<title>tx_init_simple&#45;&gt;valid_simple</title>
<path fill="none" stroke="#00b000" d="M1049.973,-853.4912C1055.4242,-844.0479 1062.5069,-831.7784 1070.2871,-818.3005"/>
<polygon fill="#00b000" stroke="#00b000" points="1073.5222,-819.6971 1075.4905,-809.2867 1067.4598,-816.1975 1073.5222,-819.6971"/>
</g>
<!-- tx_init_recovery&#45;&gt;valid_with_recovery_proof -->
<g id="edge4" class="edge">
<title>tx_init_recovery&#45;&gt;valid_with_recovery_proof</title>
<path fill="none" stroke="#00b000" d="M701.1948,-845.8913C672.825,-827.3916 633.4746,-801.7315 595.7618,-777.1393"/>
<polygon fill="#00b000" stroke="#00b000" points="597.5269,-774.112 587.2387,-771.5815 593.7033,-779.9755 597.5269,-774.112"/>
</g>
<!-- tx_spend_for_simple&#45;&gt;revoked -->
<g id="edge18" class="edge">
<title>tx_spend_for_simple&#45;&gt;revoked</title>
<path fill="none" stroke="#ff50b0" d="M1433.2826,-518.7981C1386.1448,-481.5636 1273.4599,-395.2981 1170,-337 1058.4475,-274.1418 921.5944,-217.0986 834.8222,-183.2192"/>
<polygon fill="#ff50b0" stroke="#ff50b0" points="835.8673,-179.8704 825.2787,-179.5077 833.33,-186.3944 835.8673,-179.8704"/>
</g>
<!-- tx_spend_with_recovery&#45;&gt;frozen -->
<g id="edge20" class="edge">
<title>tx_spend_with_recovery&#45;&gt;frozen</title>
<path fill="none" stroke="#a020f0" d="M103.9981,-518.9322C112.9668,-505.4264 125.7658,-486.1527 138.1486,-467.5056"/>
<polygon fill="#a020f0" stroke="#a020f0" points="141.1771,-469.2718 143.7935,-459.0051 135.3458,-465.3994 141.1771,-469.2718"/>
</g>
<!-- tx_revocation&#45;&gt;revoked -->
<g id="edge26" class="edge">
<title>tx_revocation&#45;&gt;revoked</title>
<path fill="none" stroke="#ff50b0" d="M749,-263.785C749,-256.3505 749,-247.1756 749,-237.2965"/>
<polygon fill="#ff50b0" stroke="#ff50b0" points="752.5001,-237.221 749,-227.221 745.5001,-237.2211 752.5001,-237.221"/>
</g>
<!-- tx_recovery&#45;&gt;valid_with_recovery_proof -->
<g id="edge23" class="edge">
<title>tx_recovery&#45;&gt;valid_with_recovery_proof</title>
<path fill="none" stroke="#666666" d="M307.6384,-556.1376C322.058,-568.3274 341.9557,-585.1481 363.0999,-603.0226"/>
<polygon fill="#666666" stroke="#666666" points="361.042,-605.866 370.9384,-609.649 365.5611,-600.5201 361.042,-605.866"/>
</g>
<!-- tx_update_simple&#45;&gt;valid_simple -->
<g id="edge12" class="edge">
<title>tx_update_simple&#45;&gt;valid_simple</title>
<path fill="none" stroke="#4060ff" stroke-width="5" d="M1142.4566,-555.4246C1143.1882,-562.9747 1143.7448,-572.3837 1144.1263,-582.7622"/>
<polygon fill="#4060ff" stroke="#4060ff" stroke-width="5" points="1139.76,-583.1191 1144.4384,-592.9808 1148.506,-582.8518 1139.76,-583.1191"/>
</g>
<!-- tx_update_with_recovery_proof&#45;&gt;settling_to_with_recovery -->
<g id="edge6" class="edge">
<title>tx_update_with_recovery_proof&#45;&gt;settling_to_with_recovery</title>
<path fill="none" stroke="#4060ff" stroke-width="5" d="M582.311,-517.8371C579.1652,-507.2407 575.0411,-493.3489 570.7963,-479.0507"/>
<polygon fill="#4060ff" stroke="#4060ff" stroke-width="5" points="574.889,-477.4638 567.8489,-469.1225 566.5008,-479.9541 574.889,-477.4638"/>
</g>
<!-- tx_update_cross_to_simple_from_with_recovery&#45;&gt;settling_to_simple -->
<g id="edge10" class="edge">
<title>tx_update_cross_to_simple_from_with_recovery&#45;&gt;settling_to_simple</title>
<path fill="none" stroke="#4090ff" d="M775.4971,-517.8371C776.1587,-509.3684 776.9848,-498.7948 777.8601,-487.5911"/>
<polygon fill="#4090ff" stroke="#4090ff" points="781.3494,-487.8625 778.639,-477.6202 774.3707,-487.3172 781.3494,-487.8625"/>
</g>
<!-- tx_update_cross_to_with_recovery_from_simple&#45;&gt;valid_with_recovery_proof -->
<g id="edge14" class="edge">
<title>tx_update_cross_to_with_recovery_from_simple&#45;&gt;valid_with_recovery_proof</title>
<path fill="none" stroke="#4090ff" d="M897.1253,-556.0263C824.0044,-581.379 692.7015,-626.9048 596.6898,-660.1942"/>
<polygon fill="#4090ff" stroke="#4090ff" points="595.5208,-656.8951 587.2192,-663.4779 597.814,-663.5088 595.5208,-656.8951"/>
</g>
</g>
</svg>
