<?xml version="1.0" encoding="UTF-8" standalone="no"?>
<!DOCTYPE svg PUBLIC "-//W3C//DTD SVG 1.1//EN"
 "http://www.w3.org/Graphics/SVG/1.1/DTD/svg11.dtd">
<!-- Generated by graphviz version 2.40.1 (20161225.0304)
 -->
<!-- Title: self_sovereign_btcr_state_diagram Pages: 1 -->
<svg width="756pt" height="874pt"
 viewBox="0.00 0.00 755.50 874.00" xmlns="http://www.w3.org/2000/svg" xmlns:xlink="http://www.w3.org/1999/xlink">
<g id="graph0" class="graph" transform="scale(1 1) rotate(0) translate(72 802)">
<title>self_sovereign_btcr_state_diagram</title>
<polygon fill="#ffffff" stroke="transparent" points="-72,72 -72,-802 683.5,-802 683.5,72 -72,72"/>
<!-- begin -->
<g id="node1" class="node">
<title>begin</title>
<ellipse fill="#a0ffa0" stroke="#a0ffa0" cx="414" cy="-658" rx="72" ry="72"/>
<text text-anchor="middle" x="414" y="-653" font-family="Times,serif" font-size="20.00" fill="#000000">Begin</text>
</g>
<!-- tx_init_simple -->
<g id="node4" class="node">
<title>tx_init_simple</title>
<polygon fill="#ffffff" stroke="#00b000" points="499.5,-550 328.5,-550 328.5,-512 499.5,-512 499.5,-550"/>
<text text-anchor="middle" x="414" y="-534.8" font-family="Times,serif" font-size="14.00" fill="#000000">tx: Initialize DID </text>
<text text-anchor="middle" x="414" y="-519.8" font-family="Times,serif" font-size="14.00" fill="#000000"> (requires revocation proof)</text>
</g>
<!-- begin&#45;&gt;tx_init_simple -->
<g id="edge1" class="edge">
<title>begin&#45;&gt;tx_init_simple</title>
<path fill="none" stroke="#00b000" d="M414,-575.8867C414,-569.6535 414,-563.6827 414,-558.2452"/>
<polygon fill="#00b000" stroke="#00b000" points="414.0001,-575.9654 409.5,-585.9654 414,-580.9654 414,-585.9654 414,-585.9654 414,-585.9654 414,-580.9654 418.5,-585.9655 414.0001,-575.9654 414.0001,-575.9654"/>
<ellipse fill="none" stroke="#00b000" cx="414" cy="-554.1787" rx="4" ry="4"/>
</g>
<!-- valid_simple -->
<g id="node2" class="node">
<title>valid_simple</title>
<path fill="#80a0ff" stroke="#80a0ff" d="M510,-476C510,-476 318,-476 318,-476 312,-476 306,-470 306,-464 306,-464 306,-272 306,-272 306,-266 312,-260 318,-260 318,-260 510,-260 510,-260 516,-260 522,-266 522,-272 522,-272 522,-464 522,-464 522,-470 516,-476 510,-476"/>
<text text-anchor="middle" x="414" y="-363" font-family="Times,serif" font-size="20.00" fill="#000000">Valid DID</text>
</g>
<!-- tx_spend_for_simple -->
<g id="node5" class="node">
<title>tx_spend_for_simple</title>
<polygon fill="#ffffff" stroke="#ff00ff" points="184,-224 0,-224 0,-188 184,-188 184,-224"/>
<text text-anchor="middle" x="92" y="-202.3" font-family="Times,serif" font-size="14.00" fill="#000000">tx: Noncompliant BTC Spend</text>
</g>
<!-- valid_simple&#45;&gt;tx_spend_for_simple -->
<g id="edge5" class="edge">
<title>valid_simple&#45;&gt;tx_spend_for_simple</title>
<path fill="none" stroke="#ff00ff" d="M296.7583,-309.0151C240.4141,-280.6679 176.3323,-248.428 135.0944,-227.681"/>
<polygon fill="#ff00ff" stroke="#ff00ff" points="296.9497,-309.1113 303.8604,-317.6256 301.4163,-311.3585 305.8829,-313.6057 305.8829,-313.6057 305.8829,-313.6057 301.4163,-311.3585 307.9054,-309.5858 296.9497,-309.1113 296.9497,-309.1113"/>
<ellipse fill="none" stroke="#ff00ff" cx="131.4934" cy="-225.8694" rx="4" ry="4"/>
</g>
<!-- tx_revocation -->
<g id="node6" class="node">
<title>tx_revocation</title>
<polygon fill="#ffffff" stroke="#ff00ff" points="412,-224 202,-224 202,-188 412,-188 412,-224"/>
<text text-anchor="middle" x="307" y="-202.3" font-family="Times,serif" font-size="14.00" fill="#000000">tx: Explicit Immediate Revocation</text>
</g>
<!-- valid_simple&#45;&gt;tx_revocation -->
<g id="edge7" class="edge">
<title>valid_simple&#45;&gt;tx_revocation</title>
<path fill="none" stroke="#ff00ff" d="M337.0186,-251.4487C332.1025,-244.0057 327.5165,-237.0624 323.4815,-230.9534"/>
<polygon fill="#ff00ff" stroke="#ff00ff" points="337.1181,-251.5994 338.8746,-262.4238 339.8738,-255.7715 342.6295,-259.9437 342.6295,-259.9437 342.6295,-259.9437 339.8738,-255.7715 346.3843,-257.4636 337.1181,-251.5994 337.1181,-251.5994"/>
<ellipse fill="none" stroke="#ff00ff" cx="321.2158" cy="-227.523" rx="4" ry="4"/>
</g>
<!-- tx_update_simple -->
<g id="node7" class="node">
<title>tx_update_simple</title>
<polygon fill="#ffffff" stroke="#4060ff" points="611.5,-224 430.5,-224 430.5,-188 611.5,-188 611.5,-224"/>
<text text-anchor="middle" x="521" y="-202.3" font-family="Times,serif" font-size="14.00" fill="#000000">tx: Simple Compliant Update</text>
</g>
<!-- valid_simple&#45;&gt;tx_update_simple -->
<g id="edge3" class="edge">
<title>valid_simple&#45;&gt;tx_update_simple</title>
<path fill="none" stroke="#4060ff" d="M484.8461,-251.4487C490.0367,-244.0057 494.9893,-237.0624 499.4827,-230.9534"/>
<polygon fill="#4060ff" stroke="#4060ff" points="484.6578,-251.7208 475.2667,-257.3828 481.8124,-255.8322 478.967,-259.9437 478.967,-259.9437 478.967,-259.9437 481.8124,-255.8322 482.6673,-262.5045 484.6578,-251.7208 484.6578,-251.7208"/>
<ellipse fill="none" stroke="#4060ff" cx="502.1412" cy="-227.391" rx="4" ry="4"/>
</g>
<!-- revoked -->
<g id="node3" class="node">
<title>revoked</title>
<polygon fill="#ff50b0" stroke="#ff50b0" points="271,-46.1766 271,-105.8234 228.8234,-148 169.1766,-148 127,-105.8234 127,-46.1766 169.1766,-4 228.8234,-4 271,-46.1766"/>
<polygon fill="none" stroke="#ff50b0" points="275,-44.5198 275,-107.4802 230.4802,-152 167.5198,-152 123,-107.4802 123,-44.5198 167.5198,0 230.4802,0 275,-44.5198"/>
<text text-anchor="middle" x="199" y="-71" font-family="Times,serif" font-size="20.00" fill="#000000">Revoked</text>
</g>
<!-- tx_init_simple&#45;&gt;valid_simple -->
<g id="edge2" class="edge">
<title>tx_init_simple&#45;&gt;valid_simple</title>
<path fill="none" stroke="#00b000" d="M414,-511.9828C414,-504.7396 414,-495.8508 414,-486.0764"/>
<polygon fill="#00b000" stroke="#00b000" points="417.5001,-486.0349 414,-476.0349 410.5001,-486.0349 417.5001,-486.0349"/>
</g>
<!-- tx_spend_for_simple&#45;&gt;revoked -->
<g id="edge6" class="edge">
<title>tx_spend_for_simple&#45;&gt;revoked</title>
<path fill="none" stroke="#ff00ff" d="M106.8779,-187.9241C116.6488,-176.0529 130.0999,-159.7104 143.7059,-143.1797"/>
<polygon fill="#ff00ff" stroke="#ff00ff" points="146.7296,-145.0136 150.3822,-135.0683 141.3248,-140.5651 146.7296,-145.0136"/>
</g>
<!-- tx_revocation&#45;&gt;revoked -->
<g id="edge8" class="edge">
<title>tx_revocation&#45;&gt;revoked</title>
<path fill="none" stroke="#ff00ff" d="M291.9831,-187.9241C281.9809,-175.8844 268.158,-159.2458 254.2263,-142.476"/>
<polygon fill="#ff00ff" stroke="#ff00ff" points="256.9132,-140.2332 247.8308,-134.7779 251.5289,-144.7064 256.9132,-140.2332"/>
</g>
<!-- tx_update_simple&#45;&gt;valid_simple -->
<g id="edge4" class="edge">
<title>tx_update_simple&#45;&gt;valid_simple</title>
<path fill="none" stroke="#4060ff" d="M513.444,-224.1853C509.2154,-231.7049 503.5745,-241.0932 497.1168,-251.4487"/>
<polygon fill="#4060ff" stroke="#4060ff" points="494.1352,-249.6153 491.7741,-259.9437 500.0607,-253.342 494.1352,-249.6153"/>
</g>
<!-- version -->
<g id="node8" class="node">
<title>version</title>
<text text-anchor="middle" x="419" y="-72.3" font-family="Times,serif" font-size="14.00" fill="#888888">rendered 20170721 from commit 70ab2ee</text>
</g>
</g>
</svg>
