<?xml version="1.0" encoding="UTF-8" standalone="no"?>
<!DOCTYPE svg PUBLIC "-//W3C//DTD SVG 1.1//EN"
 "http://www.w3.org/Graphics/SVG/1.1/DTD/svg11.dtd">
<!-- Generated by graphviz version 2.40.1 (20161225.0304)
 -->
<!-- Title: self_sovereign_identity_did_btcr_state_diagram Pages: 1 -->
<svg width="823pt" height="971pt"
 viewBox="0.00 0.00 822.50 971.00" xmlns="http://www.w3.org/2000/svg" xmlns:xlink="http://www.w3.org/1999/xlink">
<g id="graph0" class="graph" transform="scale(1 1) rotate(0) translate(72 899)">
<title>self_sovereign_identity_did_btcr_state_diagram</title>
<polygon fill="#ffffff" stroke="transparent" points="-72,72 -72,-899 750.5,-899 750.5,72 -72,72"/>
<text text-anchor="middle" x="339.25" y="-33.4" font-family="Times,serif" font-size="12.00" fill="#888888"> rendered 20170721 from commit cfa5cef </text>
<text text-anchor="middle" x="339.25" y="-20.4" font-family="Times,serif" font-size="12.00" fill="#888888"> https://github.com/WebOfTrustInfo/btcr&#45;hackathon </text>
<text text-anchor="middle" x="339.25" y="-7.4" font-family="Times,serif" font-size="12.00" fill="#888888"> http://www.weboftrust.info/ </text>
<g id="clust1" class="cluster">
<title>cluster_title_floating</title>
<polygon fill="#ffffff" stroke="transparent" points="8,-707 8,-819 401,-819 401,-707 8,-707"/>
<text text-anchor="middle" x="204.5" y="-795.8" font-family="Times,serif" font-size="24.00" fill="#000000">Self Sovereign Identity </text>
<text text-anchor="middle" x="204.5" y="-769.8" font-family="Times,serif" font-size="24.00" fill="#000000"> State Diagram for DID:BTCR Method</text>
</g>
<!-- foo -->
<!-- begin -->
<g id="node2" class="node">
<title>begin</title>
<ellipse fill="#a0ffa0" stroke="#a0ffa0" cx="481" cy="-733" rx="72" ry="72"/>
<text text-anchor="middle" x="481" y="-728" font-family="Times,serif" font-size="20.00" fill="#000000">Begin</text>
</g>
<!-- tx_init_simple -->
<g id="node5" class="node">
<title>tx_init_simple</title>
<polygon fill="#ffffff" stroke="#00b000" points="566.5,-625 395.5,-625 395.5,-587 566.5,-587 566.5,-625"/>
<text text-anchor="middle" x="481" y="-609.8" font-family="Times,serif" font-size="14.00" fill="#000000">tx: Initialize DID </text>
<text text-anchor="middle" x="481" y="-594.8" font-family="Times,serif" font-size="14.00" fill="#000000"> (requires revocation proof)</text>
</g>
<!-- begin&#45;&gt;tx_init_simple -->
<g id="edge1" class="edge">
<title>begin&#45;&gt;tx_init_simple</title>
<path fill="none" stroke="#00b000" d="M481,-650.8867C481,-644.6535 481,-638.6827 481,-633.2452"/>
<polygon fill="#00b000" stroke="#00b000" points="481.0001,-650.9654 476.5,-660.9654 481,-655.9654 481,-660.9654 481,-660.9654 481,-660.9654 481,-655.9654 485.5,-660.9655 481.0001,-650.9654 481.0001,-650.9654"/>
<ellipse fill="none" stroke="#00b000" cx="481" cy="-629.1787" rx="4" ry="4"/>
</g>
<!-- valid_simple -->
<g id="node3" class="node">
<title>valid_simple</title>
<path fill="#80a0ff" stroke="#80a0ff" d="M577,-551C577,-551 385,-551 385,-551 379,-551 373,-545 373,-539 373,-539 373,-347 373,-347 373,-341 379,-335 385,-335 385,-335 577,-335 577,-335 583,-335 589,-341 589,-347 589,-347 589,-539 589,-539 589,-545 583,-551 577,-551"/>
<text text-anchor="middle" x="481" y="-438" font-family="Times,serif" font-size="20.00" fill="#000000">Valid DID</text>
</g>
<!-- tx_spend_for_simple -->
<g id="node6" class="node">
<title>tx_spend_for_simple</title>
<polygon fill="#ffffff" stroke="#ff50b0" points="251,-299 67,-299 67,-263 251,-263 251,-299"/>
<text text-anchor="middle" x="159" y="-277.3" font-family="Times,serif" font-size="14.00" fill="#000000">tx: Noncompliant BTC Spend</text>
</g>
<!-- valid_simple&#45;&gt;tx_spend_for_simple -->
<g id="edge5" class="edge">
<title>valid_simple&#45;&gt;tx_spend_for_simple</title>
<path fill="none" stroke="#ff50b0" d="M363.7583,-384.0151C307.4141,-355.6679 243.3323,-323.428 202.0944,-302.681"/>
<polygon fill="#ff50b0" stroke="#ff50b0" points="363.9497,-384.1113 370.8604,-392.6256 368.4163,-386.3585 372.8829,-388.6057 372.8829,-388.6057 372.8829,-388.6057 368.4163,-386.3585 374.9054,-384.5858 363.9497,-384.1113 363.9497,-384.1113"/>
<ellipse fill="none" stroke="#ff50b0" cx="198.4934" cy="-300.8694" rx="4" ry="4"/>
</g>
<!-- tx_revocation -->
<g id="node7" class="node">
<title>tx_revocation</title>
<polygon fill="#ffffff" stroke="#ff50b0" points="479,-299 269,-299 269,-263 479,-263 479,-299"/>
<text text-anchor="middle" x="374" y="-277.3" font-family="Times,serif" font-size="14.00" fill="#000000">tx: Explicit Immediate Revocation</text>
</g>
<!-- valid_simple&#45;&gt;tx_revocation -->
<g id="edge7" class="edge">
<title>valid_simple&#45;&gt;tx_revocation</title>
<path fill="none" stroke="#ff50b0" d="M404.0186,-326.4487C399.1025,-319.0057 394.5165,-312.0624 390.4815,-305.9534"/>
<polygon fill="#ff50b0" stroke="#ff50b0" points="404.1181,-326.5994 405.8746,-337.4238 406.8738,-330.7715 409.6295,-334.9437 409.6295,-334.9437 409.6295,-334.9437 406.8738,-330.7715 413.3843,-332.4636 404.1181,-326.5994 404.1181,-326.5994"/>
<ellipse fill="none" stroke="#ff50b0" cx="388.2158" cy="-302.523" rx="4" ry="4"/>
</g>
<!-- tx_update_simple -->
<g id="node8" class="node">
<title>tx_update_simple</title>
<polygon fill="#ffffff" stroke="#4060ff" stroke-width="5" points="678.5,-299 497.5,-299 497.5,-263 678.5,-263 678.5,-299"/>
<text text-anchor="middle" x="588" y="-277.3" font-family="Times,serif" font-size="14.00" fill="#000000">tx: Simple Compliant Update</text>
</g>
<!-- valid_simple&#45;&gt;tx_update_simple -->
<g id="edge3" class="edge">
<title>valid_simple&#45;&gt;tx_update_simple</title>
<path fill="none" stroke="#4060ff" stroke-width="5" d="M551.8461,-326.4487C557.0367,-319.0057 561.9893,-312.0624 566.4827,-305.9534"/>
<polygon fill="#4060ff" stroke="#4060ff" stroke-width="5" points="551.6578,-326.7208 542.2667,-332.3828 548.8124,-330.8322 545.967,-334.9437 545.967,-334.9437 545.967,-334.9437 548.8124,-330.8322 549.6673,-337.5045 551.6578,-326.7208 551.6578,-326.7208"/>
<ellipse fill="none" stroke="#4060ff" stroke-width="5" cx="569.1412" cy="-302.391" rx="4" ry="4"/>
</g>
<!-- revoked -->
<g id="node4" class="node">
<title>revoked</title>
<polygon fill="#ff50b0" stroke="#ff50b0" points="338,-121.1766 338,-180.8234 295.8234,-223 236.1766,-223 194,-180.8234 194,-121.1766 236.1766,-79 295.8234,-79 338,-121.1766"/>
<polygon fill="none" stroke="#ff50b0" points="342,-119.5198 342,-182.4802 297.4802,-227 234.5198,-227 190,-182.4802 190,-119.5198 234.5198,-75 297.4802,-75 342,-119.5198"/>
<text text-anchor="middle" x="266" y="-146" font-family="Times,serif" font-size="20.00" fill="#000000">Revoked</text>
</g>
<!-- tx_init_simple&#45;&gt;valid_simple -->
<g id="edge2" class="edge">
<title>tx_init_simple&#45;&gt;valid_simple</title>
<path fill="none" stroke="#00b000" d="M481,-586.9828C481,-579.7396 481,-570.8508 481,-561.0764"/>
<polygon fill="#00b000" stroke="#00b000" points="484.5001,-561.0349 481,-551.0349 477.5001,-561.0349 484.5001,-561.0349"/>
</g>
<!-- tx_spend_for_simple&#45;&gt;revoked -->
<g id="edge6" class="edge">
<title>tx_spend_for_simple&#45;&gt;revoked</title>
<path fill="none" stroke="#ff50b0" d="M173.8779,-262.9241C183.6488,-251.0529 197.0999,-234.7104 210.7059,-218.1797"/>
<polygon fill="#ff50b0" stroke="#ff50b0" points="213.7296,-220.0136 217.3822,-210.0683 208.3248,-215.5651 213.7296,-220.0136"/>
</g>
<!-- tx_revocation&#45;&gt;revoked -->
<g id="edge8" class="edge">
<title>tx_revocation&#45;&gt;revoked</title>
<path fill="none" stroke="#ff50b0" d="M358.9831,-262.9241C348.9809,-250.8844 335.158,-234.2458 321.2263,-217.476"/>
<polygon fill="#ff50b0" stroke="#ff50b0" points="323.9132,-215.2332 314.8308,-209.7779 318.5289,-219.7064 323.9132,-215.2332"/>
</g>
<!-- tx_update_simple&#45;&gt;valid_simple -->
<g id="edge4" class="edge">
<title>tx_update_simple&#45;&gt;valid_simple</title>
<path fill="none" stroke="#4060ff" stroke-width="5" d="M580.444,-299.1853C576.2154,-306.7049 570.5745,-316.0932 564.1168,-326.4487"/>
<polygon fill="#4060ff" stroke="#4060ff" stroke-width="5" points="560.3945,-324.1494 558.7741,-334.9437 567.8014,-328.8078 560.3945,-324.1494"/>
</g>
</g>
</svg>
