<?xml version="1.0" encoding="UTF-8" standalone="no"?>
<!DOCTYPE svg PUBLIC "-//W3C//DTD SVG 1.1//EN"
 "http://www.w3.org/Graphics/SVG/1.1/DTD/svg11.dtd">
<!-- Generated by graphviz version 2.40.1 (20161225.0304)
 -->
<!-- Title: self_sovereign_identity_did_btcr_state_diagram Pages: 1 -->
<svg width="1071pt" height="593pt"
 viewBox="0.00 0.00 1071.00 592.70" xmlns="http://www.w3.org/2000/svg" xmlns:xlink="http://www.w3.org/1999/xlink">
<g id="graph0" class="graph" transform="scale(1 1) rotate(0) translate(72 520.6967)">
<title>self_sovereign_identity_did_btcr_state_diagram</title>
<polygon fill="#ffffff" stroke="transparent" points="-72,72 -72,-520.6967 999,-520.6967 999,72 -72,72"/>
<g id="clust1" class="cluster">
<title>cluster_state_shapes</title>
<polygon fill="#ffffff" stroke="transparent" points="8,-8 8,-440.6967 919,-440.6967 919,-8 8,-8"/>
<text text-anchor="middle" x="463.5" y="-420.6967" font-family="Times,serif" font-size="20.00" fill="#000000">Key for Shapes</text>
</g>
<g id="clust2" class="cluster">
<title>cluster_txs_key</title>
<polygon fill="#ffffff" stroke="#000000" points="429,-16 429,-402.6967 911,-402.6967 911,-16 429,-16"/>
<text text-anchor="middle" x="670" y="-385.8967" font-family="Times,serif" font-size="16.00" fill="#000000">Edges </text>
<text text-anchor="middle" x="670" y="-348.8967" font-family="Times,serif" font-size="16.00" fill="#000000"> The Bitcoin transaction initiating action is rendered as an explicit node. </text>
<text text-anchor="middle" x="670" y="-330.8967" font-family="Times,serif" font-size="16.00" fill="#000000"> It is not a state, but rather an elaborate edge label. </text>
<text text-anchor="middle" x="670" y="-312.8967" font-family="Times,serif" font-size="16.00" fill="#000000"> This creates two drawn edges for the single logical state transition.</text>
</g>
<g id="clust3" class="cluster">
<title>cluster_states_key</title>
<polygon fill="#ffffff" stroke="#000000" points="16,-232 16,-349.3933 421,-349.3933 421,-232 16,-232"/>
<text text-anchor="middle" x="218.5" y="-332.5933" font-family="Times,serif" font-size="16.00" fill="#000000">States</text>
</g>
<!-- tx_X -->
<g id="node1" class="node">
<title>tx_X</title>
<polygon fill="#ffffff" stroke="#666666" points="730,-295.6967 574,-295.6967 574,-259.6967 730,-259.6967 730,-295.6967"/>
<text text-anchor="middle" x="652" y="-273.9967" font-family="Times,serif" font-size="14.00" fill="#000000">tx: Updating Transaction</text>
</g>
<!-- state_A -->
<g id="node2" class="node">
<title>state_A</title>
<path fill="#80a0ff" stroke="#80a0ff" d="M693.5,-60C693.5,-60 610.5,-60 610.5,-60 604.5,-60 598.5,-54 598.5,-48 598.5,-48 598.5,-36 598.5,-36 598.5,-30 604.5,-24 610.5,-24 610.5,-24 693.5,-24 693.5,-24 699.5,-24 705.5,-30 705.5,-36 705.5,-36 705.5,-48 705.5,-48 705.5,-54 699.5,-60 693.5,-60"/>
<text text-anchor="middle" x="652" y="-37" font-family="Times,serif" font-size="20.00" fill="#000000">Some State</text>
</g>
<!-- tx_X&#45;&gt;state_A -->
<g id="edge2" class="edge">
<title>tx_X:se&#45;&gt;state_A</title>
<path fill="none" stroke="#666666" d="M730,-259.6967C748.1093,-241.5874 737,-228.1104 737,-202.5 737,-202.5 737,-202.5 737,-97.5 737,-82.3199 727.3778,-71.0719 714.6082,-62.8285"/>
<polygon fill="#666666" stroke="#666666" points="716.2542,-59.7381 705.8318,-57.8341 712.792,-65.822 716.2542,-59.7381"/>
</g>
<!-- state_A&#45;&gt;tx_X -->
<g id="edge1" class="edge">
<title>state_A&#45;&gt;tx_X:sw</title>
<path fill="none" stroke="#666666" d="M589.3918,-62.8285C576.6222,-71.0719 567,-82.3199 567,-97.5 567,-202.5 567,-202.5 567,-202.5 567,-225.1092 558.3419,-238.2621 568.7723,-253.494"/>
<polygon fill="#666666" stroke="#666666" points="589.4769,-62.7801 600.3939,-61.7452 593.8226,-60.3071 598.1682,-57.8341 598.1682,-57.8341 598.1682,-57.8341 593.8226,-60.3071 595.9425,-53.9231 589.4769,-62.7801 589.4769,-62.7801"/>
<ellipse fill="none" stroke="#666666" cx="571.4222" cy="-256.6381" rx="4" ry="4"/>
<text text-anchor="middle" x="642.5" y="-153.8" font-family="Times,serif" font-size="14.00" fill="#000000">note different arrow styles </text>
<text text-anchor="middle" x="642.5" y="-138.8" font-family="Times,serif" font-size="14.00" fill="#000000"> on a single logical edge</text>
</g>
<!-- ending -->
<g id="node3" class="node">
<title>ending</title>
<polygon fill="#ff50b0" stroke="#ff50b0" points="408.867,-270.2408 408.867,-285.1525 386.0992,-295.6967 353.9008,-295.6967 331.133,-285.1525 331.133,-270.2408 353.9008,-259.6967 386.0992,-259.6967 408.867,-270.2408"/>
<polygon fill="none" stroke="#ff50b0" points="412.885,-267.69 412.885,-287.7033 386.9881,-299.6967 353.0119,-299.6967 327.115,-287.7033 327.115,-267.69 353.0119,-255.6967 386.9881,-255.6967 412.885,-267.69"/>
<text text-anchor="middle" x="370" y="-273.9967" font-family="Times,serif" font-size="14.00" fill="#000000">ending</text>
</g>
<!-- deciding -->
<g id="node4" class="node">
<title>deciding</title>
<polygon fill="#5070ff" stroke="#5070ff" points="250,-295.6967 190.0085,-277.6967 250,-259.6967 309.9915,-277.6967 250,-295.6967"/>
<polyline fill="none" stroke="#5070ff" points="201.5023,-281.1453 201.5023,-274.248 "/>
<polyline fill="none" stroke="#5070ff" points="238.5062,-263.1453 261.4938,-263.1453 "/>
<polyline fill="none" stroke="#5070ff" points="298.4977,-274.248 298.4977,-281.1453 "/>
<polyline fill="none" stroke="#5070ff" points="261.4938,-292.248 238.5062,-292.248 "/>
<text text-anchor="middle" x="250" y="-273.9967" font-family="Times,serif" font-size="14.00" fill="#000000">deciding</text>
</g>
<!-- resting -->
<g id="node5" class="node">
<title>resting</title>
<path fill="#80a0ff" stroke="#80a0ff" d="M160.5,-295.6967C160.5,-295.6967 129.5,-295.6967 129.5,-295.6967 123.5,-295.6967 117.5,-289.6967 117.5,-283.6967 117.5,-283.6967 117.5,-271.6967 117.5,-271.6967 117.5,-265.6967 123.5,-259.6967 129.5,-259.6967 129.5,-259.6967 160.5,-259.6967 160.5,-259.6967 166.5,-259.6967 172.5,-265.6967 172.5,-271.6967 172.5,-271.6967 172.5,-283.6967 172.5,-283.6967 172.5,-289.6967 166.5,-295.6967 160.5,-295.6967"/>
<text text-anchor="middle" x="145" y="-273.9967" font-family="Times,serif" font-size="14.00" fill="#000000">resting</text>
</g>
<!-- starting -->
<g id="node6" class="node">
<title>starting</title>
<ellipse fill="#a0ffa0" stroke="#a0ffa0" cx="62" cy="-277.6967" rx="37.8943" ry="37.8943"/>
<text text-anchor="middle" x="62" y="-273.9967" font-family="Times,serif" font-size="14.00" fill="#000000">starting</text>
</g>
</g>
</svg>
