<?xml version="1.0" encoding="UTF-8" standalone="no"?>
<!DOCTYPE svg PUBLIC "-//W3C//DTD SVG 1.1//EN"
 "http://www.w3.org/Graphics/SVG/1.1/DTD/svg11.dtd">
<!-- Generated by graphviz version 2.40.1 (20161225.0304)
 -->
<!-- Title: self_sovereign_btcr_state_diagram Pages: 1 -->
<svg width="1598pt" height="1184pt"
 viewBox="0.00 0.00 1598.00 1184.00" xmlns="http://www.w3.org/2000/svg" xmlns:xlink="http://www.w3.org/1999/xlink">
<g id="graph0" class="graph" transform="scale(1 1) rotate(0) translate(72 1112)">
<title>self_sovereign_btcr_state_diagram</title>
<polygon fill="#ffffff" stroke="transparent" points="-72,72 -72,-1112 1526,-1112 1526,72 -72,72"/>
<!-- begin -->
<g id="node1" class="node">
<title>begin</title>
<ellipse fill="#a0ffa0" stroke="#a0ffa0" cx="780" cy="-968" rx="72" ry="72"/>
<text text-anchor="middle" x="780" y="-963" font-family="Times,serif" font-size="20.00" fill="#000000">Begin</text>
</g>
<!-- tx_init_simple -->
<g id="node8" class="node">
<title>tx_init_simple</title>
<polygon fill="#ffffff" stroke="#00b000" points="1083.5,-851.5 912.5,-851.5 912.5,-813.5 1083.5,-813.5 1083.5,-851.5"/>
<text text-anchor="middle" x="998" y="-836.3" font-family="Times,serif" font-size="14.00" fill="#000000">tx: Initialize DID </text>
<text text-anchor="middle" x="998" y="-821.3" font-family="Times,serif" font-size="14.00" fill="#000000"> (requires revocation proof)</text>
</g>
<!-- begin&#45;&gt;tx_init_simple -->
<g id="edge1" class="edge">
<title>begin&#45;&gt;tx_init_simple</title>
<path fill="none" stroke="#00b000" d="M850.1213,-924.4154C886.6861,-901.6882 929.968,-874.786 960.2252,-855.9793"/>
<polygon fill="#00b000" stroke="#00b000" points="849.7984,-924.6161 838.9297,-926.0732 845.5518,-927.2556 841.3053,-929.8951 841.3053,-929.8951 841.3053,-929.8951 845.5518,-927.2556 843.6808,-933.717 849.7984,-924.6161 849.7984,-924.6161"/>
<ellipse fill="none" stroke="#00b000" cx="963.8437" cy="-853.7302" rx="4" ry="4"/>
</g>
<!-- tx_init_recovery -->
<g id="node9" class="node">
<title>tx_init_recovery</title>
<polygon fill="#ffffff" stroke="#00b000" points="776.5,-859 585.5,-859 585.5,-806 776.5,-806 776.5,-859"/>
<text text-anchor="middle" x="681" y="-843.8" font-family="Times,serif" font-size="14.00" fill="#000000">tx: Initialize DID </text>
<text text-anchor="middle" x="681" y="-828.8" font-family="Times,serif" font-size="14.00" fill="#000000"> (with recovery proof </text>
<text text-anchor="middle" x="681" y="-813.8" font-family="Times,serif" font-size="14.00" fill="#000000"> and required revocation proof)</text>
</g>
<!-- begin&#45;&gt;tx_init_recovery -->
<g id="edge2" class="edge">
<title>begin&#45;&gt;tx_init_recovery</title>
<path fill="none" stroke="#00b000" d="M731.3641,-901.4327C722.2774,-888.9958 713.1518,-876.5057 705.2127,-865.6395"/>
<polygon fill="#00b000" stroke="#00b000" points="731.5411,-901.675 733.807,-912.4042 734.4908,-905.7122 737.4405,-909.7494 737.4405,-909.7494 737.4405,-909.7494 734.4908,-905.7122 741.0741,-907.0947 731.5411,-901.675 731.5411,-901.675"/>
<ellipse fill="none" stroke="#00b000" cx="702.7935" cy="-862.3285" rx="4" ry="4"/>
</g>
<!-- valid_simple -->
<g id="node2" class="node">
<title>valid_simple</title>
<path fill="#80a0ff" stroke="#80a0ff" d="M1212,-769C1212,-769 1020,-769 1020,-769 1014,-769 1008,-763 1008,-757 1008,-757 1008,-565 1008,-565 1008,-559 1014,-553 1020,-553 1020,-553 1212,-553 1212,-553 1218,-553 1224,-559 1224,-565 1224,-565 1224,-757 1224,-757 1224,-763 1218,-769 1212,-769"/>
<text text-anchor="middle" x="1116" y="-656" font-family="Times,serif" font-size="20.00" fill="#000000">Valid DID</text>
</g>
<!-- tx_spend_for_simple -->
<g id="node10" class="node">
<title>tx_spend_for_simple</title>
<polygon fill="#ffffff" stroke="#ff00ff" points="1454,-460 1270,-460 1270,-424 1454,-424 1454,-460"/>
<text text-anchor="middle" x="1362" y="-438.3" font-family="Times,serif" font-size="14.00" fill="#000000">tx: Noncompliant BTC Spend</text>
</g>
<!-- valid_simple&#45;&gt;tx_spend_for_simple -->
<g id="edge17" class="edge">
<title>valid_simple&#45;&gt;tx_spend_for_simple</title>
<path fill="none" stroke="#ff00ff" d="M1233.0008,-611.4537C1270.3786,-591.6196 1309.8337,-566.0202 1340,-535 1357.0795,-517.437 1361.7756,-489.195 1362.6914,-468.4358"/>
<polygon fill="#ff00ff" stroke="#ff00ff" points="1232.926,-611.4926 1221.9782,-612.1216 1228.4916,-613.8026 1224.0572,-616.1126 1224.0572,-616.1126 1224.0572,-616.1126 1228.4916,-613.8026 1226.1362,-620.1035 1232.926,-611.4926 1232.926,-611.4926"/>
<ellipse fill="none" stroke="#ff00ff" cx="1362.7855" cy="-464.3279" rx="4" ry="4"/>
</g>
<!-- tx_revocation -->
<g id="node12" class="node">
<title>tx_revocation</title>
<polygon fill="#ffffff" stroke="#ff00ff" points="1065,-225 855,-225 855,-189 1065,-189 1065,-225"/>
<text text-anchor="middle" x="960" y="-203.3" font-family="Times,serif" font-size="14.00" fill="#000000">tx: Explicit Immediate Revocation</text>
</g>
<!-- valid_simple&#45;&gt;tx_revocation -->
<g id="edge25" class="edge">
<title>valid_simple&#45;&gt;tx_revocation</title>
<path fill="none" stroke="#ff00ff" d="M1075.559,-543.3065C1039.3587,-437.9541 988.9805,-291.3406 968.8363,-232.716"/>
<polygon fill="#ff00ff" stroke="#ff00ff" points="1075.5826,-543.3752 1074.5765,-554.2949 1077.2075,-548.1039 1078.8323,-552.8325 1078.8323,-552.8325 1078.8323,-552.8325 1077.2075,-548.1039 1083.0881,-551.3701 1075.5826,-543.3752 1075.5826,-543.3752"/>
<ellipse fill="none" stroke="#ff00ff" cx="967.4991" cy="-228.8242" rx="4" ry="4"/>
</g>
<!-- tx_update_simple -->
<g id="node14" class="node">
<title>tx_update_simple</title>
<polygon fill="#ffffff" stroke="#4060ff" points="1266.5,-515 1085.5,-515 1085.5,-479 1266.5,-479 1266.5,-515"/>
<text text-anchor="middle" x="1176" y="-493.3" font-family="Times,serif" font-size="14.00" fill="#000000">tx: Simple Compliant Update</text>
</g>
<!-- valid_simple&#45;&gt;tx_update_simple -->
<g id="edge11" class="edge">
<title>valid_simple&#45;&gt;tx_update_simple</title>
<path fill="none" stroke="#4060ff" d="M1152.8728,-543.4054C1155.8766,-535.9291 1158.7913,-528.9427 1161.4968,-522.7748"/>
<polygon fill="#4060ff" stroke="#4060ff" points="1152.7628,-543.6833 1144.8969,-551.3239 1150.9218,-548.3321 1149.0808,-552.9808 1149.0808,-552.9808 1149.0808,-552.9808 1150.9218,-548.3321 1153.2647,-554.6377 1152.7628,-543.6833 1152.7628,-543.6833"/>
<ellipse fill="none" stroke="#4060ff" cx="1163.1618" cy="-519.0727" rx="4" ry="4"/>
</g>
<!-- tx_update_cross_to_with_recovery_from_simple -->
<g id="node17" class="node">
<title>tx_update_cross_to_with_recovery_from_simple</title>
<polygon fill="#ffffff" stroke="#4090ff" points="1029,-516 875,-516 875,-478 1029,-478 1029,-516"/>
<text text-anchor="middle" x="952" y="-500.8" font-family="Times,serif" font-size="14.00" fill="#000000">tx: Compliant Update </text>
<text text-anchor="middle" x="952" y="-485.8" font-family="Times,serif" font-size="14.00" fill="#000000"> (adding recovery proof)</text>
</g>
<!-- valid_simple&#45;&gt;tx_update_cross_to_with_recovery_from_simple -->
<g id="edge13" class="edge">
<title>valid_simple&#45;&gt;tx_update_cross_to_with_recovery_from_simple</title>
<path fill="none" stroke="#4090ff" d="M1000.855,-545.855C992.24,-537.24 984.212,-529.212 977.2536,-522.2536"/>
<polygon fill="#4090ff" stroke="#4090ff" points="1000.9097,-545.9097 1004.7988,-556.1628 1004.4453,-549.4453 1007.9808,-552.9808 1007.9808,-552.9808 1007.9808,-552.9808 1004.4453,-549.4453 1011.1628,-549.7988 1000.9097,-545.9097 1000.9097,-545.9097"/>
<ellipse fill="none" stroke="#4090ff" cx="974.0063" cy="-519.0063" rx="4" ry="4"/>
</g>
<!-- valid_with_recovery_proof -->
<g id="node3" class="node">
<title>valid_with_recovery_proof</title>
<path fill="#80a0ff" stroke="#80a0ff" d="M575,-769C575,-769 383,-769 383,-769 377,-769 371,-763 371,-757 371,-757 371,-565 371,-565 371,-559 377,-553 383,-553 383,-553 575,-553 575,-553 581,-553 587,-559 587,-565 587,-565 587,-757 587,-757 587,-763 581,-769 575,-769"/>
<text text-anchor="middle" x="479" y="-667" font-family="Times,serif" font-size="20.00" fill="#000000">Valid DID </text>
<text text-anchor="middle" x="479" y="-645" font-family="Times,serif" font-size="20.00" fill="#000000"> (with recovery proof)</text>
</g>
<!-- tx_spend_with_recovery -->
<g id="node11" class="node">
<title>tx_spend_with_recovery</title>
<polygon fill="#ffffff" stroke="#a020f0" points="184,-515 0,-515 0,-479 184,-479 184,-515"/>
<text text-anchor="middle" x="92" y="-493.3" font-family="Times,serif" font-size="14.00" fill="#000000">tx: Noncompliant BTC Spend</text>
</g>
<!-- valid_with_recovery_proof&#45;&gt;tx_spend_with_recovery -->
<g id="edge19" class="edge">
<title>valid_with_recovery_proof&#45;&gt;tx_spend_with_recovery</title>
<path fill="none" stroke="#a020f0" d="M361.6666,-611.2773C288.2542,-580.1672 197.4372,-541.6814 142.1565,-518.2549"/>
<polygon fill="#a020f0" stroke="#a020f0" points="361.7343,-611.306 369.1859,-619.3512 366.338,-613.2569 370.9417,-615.2079 370.9417,-615.2079 370.9417,-615.2079 366.338,-613.2569 372.6976,-611.0645 361.7343,-611.306 361.7343,-611.306"/>
<ellipse fill="none" stroke="#a020f0" cx="138.2804" cy="-516.6124" rx="4" ry="4"/>
</g>
<!-- valid_with_recovery_proof&#45;&gt;tx_revocation -->
<g id="edge24" class="edge">
<title>valid_with_recovery_proof&#45;&gt;tx_revocation</title>
<path fill="none" stroke="#ff00ff" d="M426.2133,-543.3914C423.122,-534.2276 420.3291,-525.0284 418,-516 389.1929,-404.3357 380.3784,-333.3196 471,-262 499.9414,-239.2229 711.7665,-222.1758 846.9651,-213.4739"/>
<polygon fill="#ff00ff" stroke="#ff00ff" points="426.2432,-543.4773 425.287,-554.4014 427.8896,-548.1985 429.5361,-552.9197 429.5361,-552.9197 429.5361,-552.9197 427.8896,-548.1985 433.7851,-551.4379 426.2432,-543.4773 426.2432,-543.4773"/>
<ellipse fill="none" stroke="#ff00ff" cx="850.9596" cy="-213.2188" rx="4" ry="4"/>
</g>
<!-- tx_update_with_recovery_proof -->
<g id="node15" class="node">
<title>tx_update_with_recovery_proof</title>
<polygon fill="#ffffff" stroke="#4060ff" points="672.5,-516 503.5,-516 503.5,-478 672.5,-478 672.5,-516"/>
<text text-anchor="middle" x="588" y="-500.8" font-family="Times,serif" font-size="14.00" fill="#000000">tx: Compliant Update </text>
<text text-anchor="middle" x="588" y="-485.8" font-family="Times,serif" font-size="14.00" fill="#000000"> (including recovery proof)</text>
</g>
<!-- valid_with_recovery_proof&#45;&gt;tx_update_with_recovery_proof -->
<g id="edge5" class="edge">
<title>valid_with_recovery_proof&#45;&gt;tx_update_with_recovery_proof</title>
<path fill="none" stroke="#4060ff" d="M556.3731,-544.5855C561.51,-536.8565 566.3158,-529.6258 570.5537,-523.2495"/>
<polygon fill="#4060ff" stroke="#4060ff" points="556.3286,-544.6525 547.0455,-550.4899 553.5609,-548.8166 550.7932,-552.9808 550.7932,-552.9808 550.7932,-552.9808 553.5609,-548.8166 554.541,-555.4717 556.3286,-544.6525 556.3286,-544.6525"/>
<ellipse fill="none" stroke="#4060ff" cx="573.0396" cy="-519.5092" rx="4" ry="4"/>
</g>
<!-- tx_update_cross_to_simple_from_with_recovery -->
<g id="node16" class="node">
<title>tx_update_cross_to_simple_from_with_recovery</title>
<polygon fill="#ffffff" stroke="#4090ff" points="857,-516 691,-516 691,-478 857,-478 857,-516"/>
<text text-anchor="middle" x="774" y="-500.8" font-family="Times,serif" font-size="14.00" fill="#000000">tx: Compliant Update </text>
<text text-anchor="middle" x="774" y="-485.8" font-family="Times,serif" font-size="14.00" fill="#000000"> (dropping recovery proof)</text>
</g>
<!-- valid_with_recovery_proof&#45;&gt;tx_update_cross_to_simple_from_with_recovery -->
<g id="edge9" class="edge">
<title>valid_with_recovery_proof&#45;&gt;tx_update_cross_to_simple_from_with_recovery</title>
<path fill="none" stroke="#4090ff" d="M596.0563,-595.9247C644.1546,-569.1852 696.7686,-539.9354 732.2164,-520.2288"/>
<polygon fill="#4090ff" stroke="#4090ff" points="595.9122,-596.0047 584.9855,-596.9306 591.5421,-598.4342 587.172,-600.8637 587.172,-600.8637 587.172,-600.8637 591.5421,-598.4342 589.3586,-604.7968 595.9122,-596.0047 595.9122,-596.0047"/>
<ellipse fill="none" stroke="#4090ff" cx="736.0162" cy="-518.1165" rx="4" ry="4"/>
</g>
<!-- settling_to_with_recovery -->
<g id="node4" class="node">
<title>settling_to_with_recovery</title>
<polygon fill="#5070ff" stroke="#5070ff" points="588,-406 480,-334 588,-262 696,-334 588,-406"/>
<polyline fill="none" stroke="#5070ff" points="489.9846,-340.6564 489.9846,-327.3436 "/>
<polyline fill="none" stroke="#5070ff" points="578.0154,-268.6564 597.9846,-268.6564 "/>
<polyline fill="none" stroke="#5070ff" points="686.0154,-327.3436 686.0154,-340.6564 "/>
<polyline fill="none" stroke="#5070ff" points="597.9846,-399.3436 578.0154,-399.3436 "/>
<text text-anchor="middle" x="588" y="-340" font-family="Times,serif" font-size="20.00" fill="#000000">Settling... </text>
<text text-anchor="middle" x="588" y="-318" font-family="Times,serif" font-size="20.00" fill="#000000"> (default 24 hours)</text>
</g>
<!-- settling_to_with_recovery&#45;&gt;valid_with_recovery_proof -->
<g id="edge7" class="edge">
<title>settling_to_with_recovery:w&#45;&gt;valid_with_recovery_proof</title>
<path fill="none" stroke="#4060ff" d="M480,-334C393.7788,-334 409.5092,-449.0911 436.5696,-542.7148"/>
<polygon fill="#4060ff" stroke="#4060ff" points="433.2908,-543.9697 439.4811,-552.5679 440.0038,-541.986 433.2908,-543.9697"/>
<text text-anchor="middle" x="451.5" y="-493.3" font-family="Times,serif" font-size="14.00" fill="#4060ff">timeout</text>
<polyline fill="none" stroke="#4060ff" points="473,-489.5 430,-489.5 426.2074,-502.8916 "/>
</g>
<!-- settling_to_with_recovery&#45;&gt;tx_revocation -->
<g id="edge8" class="edge">
<title>settling_to_with_recovery:e&#45;&gt;tx_revocation</title>
<path fill="none" stroke="#ff00ff" d="M706.1746,-333.7462C797.352,-329.2392 888.5369,-265.7827 932.6531,-230.4098"/>
<polygon fill="#ff00ff" stroke="#ff00ff" points="705.9969,-333.7506 695.8878,-329.5014 700.9984,-333.8753 696,-334 696,-334 696,-334 700.9984,-333.8753 696.1122,-338.4986 705.9969,-333.7506 705.9969,-333.7506"/>
<ellipse fill="none" stroke="#ff00ff" cx="935.9645" cy="-227.7187" rx="4" ry="4"/>
</g>
<!-- settling_to_simple -->
<g id="node5" class="node">
<title>settling_to_simple</title>
<polygon fill="#40a0ff" stroke="#40a0ff" points="1193,-406 1085,-334 1193,-262 1301,-334 1193,-406"/>
<polyline fill="none" stroke="#40a0ff" points="1094.9846,-340.6564 1094.9846,-327.3436 "/>
<polyline fill="none" stroke="#40a0ff" points="1183.0154,-268.6564 1202.9846,-268.6564 "/>
<polyline fill="none" stroke="#40a0ff" points="1291.0154,-327.3436 1291.0154,-340.6564 "/>
<polyline fill="none" stroke="#40a0ff" points="1202.9846,-399.3436 1183.0154,-399.3436 "/>
<text text-anchor="middle" x="1193" y="-340" font-family="Times,serif" font-size="20.00" fill="#000000">Settling... </text>
<text text-anchor="middle" x="1193" y="-318" font-family="Times,serif" font-size="20.00" fill="#000000"> (default 24 hours)</text>
</g>
<!-- settling_to_simple&#45;&gt;valid_simple -->
<g id="edge15" class="edge">
<title>settling_to_simple:w&#45;&gt;valid_simple</title>
<path fill="none" stroke="#4090ff" d="M1085,-334C1069,-334 1075.8978,-392.8414 1085,-406 1136.6095,-480.6095 1224.3905,-403.3905 1276,-478 1303.8548,-518.2684 1273.597,-559.625 1232.1799,-592.8122"/>
<polygon fill="#4090ff" stroke="#4090ff" points="1229.8001,-590.2288 1224.0456,-599.1246 1234.0916,-595.759 1229.8001,-590.2288"/>
<text text-anchor="middle" x="1307.5" y="-493.3" font-family="Times,serif" font-size="14.00" fill="#4090ff">timeout</text>
<polyline fill="none" stroke="#4090ff" points="1329,-489.5 1286,-489.5 1285.9369,-501.1775 "/>
</g>
<!-- settling_to_simple&#45;&gt;tx_revocation -->
<g id="edge16" class="edge">
<title>settling_to_simple:e&#45;&gt;tx_revocation</title>
<path fill="none" stroke="#ff00ff" d="M1311.0385,-331.9055C1330.0386,-322.4543 1319.1544,-283.3171 1301,-262 1286.1008,-244.5051 1166.7907,-228.2425 1073.4453,-218.0086"/>
<polygon fill="#ff00ff" stroke="#ff00ff" points="1310.7892,-331.9574 1300.0808,-329.5949 1305.8946,-332.9787 1301,-334 1301,-334 1301,-334 1305.8946,-332.9787 1301.9192,-338.4051 1310.7892,-331.9574 1310.7892,-331.9574"/>
<ellipse fill="none" stroke="#ff00ff" cx="1069.3295" cy="-217.5614" rx="4" ry="4"/>
</g>
<!-- frozen -->
<g id="node6" class="node">
<title>frozen</title>
<polygon fill="#d060a0" stroke="#d060a0" points="177,-406 69,-334 177,-262 285,-334 177,-406"/>
<polyline fill="none" stroke="#d060a0" points="78.9846,-340.6564 78.9846,-327.3436 "/>
<polyline fill="none" stroke="#d060a0" points="167.0154,-268.6564 186.9846,-268.6564 "/>
<polyline fill="none" stroke="#d060a0" points="275.0154,-327.3436 275.0154,-340.6564 "/>
<polyline fill="none" stroke="#d060a0" points="186.9846,-399.3436 167.0154,-399.3436 "/>
<text text-anchor="middle" x="177" y="-340" font-family="Times,serif" font-size="20.00" fill="#000000">Frozen... </text>
<text text-anchor="middle" x="177" y="-318" font-family="Times,serif" font-size="20.00" fill="#000000"> (default 24 hours)</text>
</g>
<!-- revoked -->
<g id="node7" class="node">
<title>revoked</title>
<polygon fill="#ff50b0" stroke="#ff50b0" points="1032,-46.1766 1032,-105.8234 989.8234,-148 930.1766,-148 888,-105.8234 888,-46.1766 930.1766,-4 989.8234,-4 1032,-46.1766"/>
<polygon fill="none" stroke="#ff50b0" points="1036,-44.5198 1036,-107.4802 991.4802,-152 928.5198,-152 884,-107.4802 884,-44.5198 928.5198,0 991.4802,0 1036,-44.5198"/>
<text text-anchor="middle" x="960" y="-71" font-family="Times,serif" font-size="20.00" fill="#000000">Revoked</text>
</g>
<!-- frozen&#45;&gt;revoked -->
<g id="edge22" class="edge">
<title>frozen:w&#45;&gt;revoked</title>
<path fill="none" stroke="#ff00ff" d="M69,-334C37,-334 48.8165,-286.832 69,-262 170.0782,-137.6424 670.29,-93.5829 873.7283,-80.6448"/>
<polygon fill="#ff00ff" stroke="#ff00ff" points="874.0127,-84.134 883.7745,-80.0159 873.5753,-77.1476 874.0127,-84.134"/>
<text text-anchor="middle" x="211.5" y="-203.3" font-family="Times,serif" font-size="14.00" fill="#ff00ff">timeout</text>
<polyline fill="none" stroke="#ff00ff" points="233,-199.5 190,-199.5 203.5308,-184.8188 "/>
</g>
<!-- tx_recovery -->
<g id="node13" class="node">
<title>tx_recovery</title>
<polygon fill="#ffffff" stroke="#666666" points="368,-516 202,-516 202,-478 368,-478 368,-516"/>
<text text-anchor="middle" x="285" y="-500.8" font-family="Times,serif" font-size="14.00" fill="#000000">tx: Recovery </text>
<text text-anchor="middle" x="285" y="-485.8" font-family="Times,serif" font-size="14.00" fill="#000000"> (DID follows this UTXO)</text>
</g>
<!-- frozen&#45;&gt;tx_recovery -->
<g id="edge21" class="edge">
<title>frozen:e&#45;&gt;tx_recovery</title>
<path fill="none" stroke="#666666" d="M294.9585,-335.2222C335.3495,-346.1319 311.4295,-427.3996 295.5925,-470.4343"/>
<polygon fill="#666666" stroke="#666666" points="294.9255,-335.2183 285.5482,-329.5335 289.9628,-334.6091 285,-334 285,-334 285,-334 289.9628,-334.6091 284.4518,-338.4665 294.9255,-335.2183 294.9255,-335.2183"/>
<ellipse fill="none" stroke="#666666" cx="294.1614" cy="-474.2389" rx="4" ry="4"/>
</g>
<!-- tx_init_simple&#45;&gt;valid_simple -->
<g id="edge3" class="edge">
<title>tx_init_simple&#45;&gt;valid_simple</title>
<path fill="none" stroke="#00b000" d="M1011.0789,-813.4912C1017.7001,-803.868 1026.3407,-791.31 1035.8226,-777.5291"/>
<polygon fill="#00b000" stroke="#00b000" points="1038.7087,-779.509 1041.4937,-769.2867 1032.9419,-775.5411 1038.7087,-779.509"/>
</g>
<!-- tx_init_recovery&#45;&gt;valid_with_recovery_proof -->
<g id="edge4" class="edge">
<title>tx_init_recovery&#45;&gt;valid_with_recovery_proof</title>
<path fill="none" stroke="#00b000" d="M649.4375,-805.7031C634.2851,-792.8386 615.0915,-776.543 595.0901,-759.5617"/>
<polygon fill="#00b000" stroke="#00b000" points="597.28,-756.8296 587.3916,-753.0255 592.7495,-762.1658 597.28,-756.8296"/>
</g>
<!-- tx_spend_for_simple&#45;&gt;revoked -->
<g id="edge18" class="edge">
<title>tx_spend_for_simple&#45;&gt;revoked</title>
<path fill="none" stroke="#ff00ff" d="M1361.7377,-423.9942C1360.2719,-388.5699 1352.1571,-309.1747 1310,-262 1225.0274,-166.9138 1152.9413,-219.9 1045,-152 1037.3708,-147.2009 1029.7666,-141.7048 1022.4198,-135.9114"/>
<polygon fill="#ff00ff" stroke="#ff00ff" points="1024.5287,-133.1152 1014.5599,-129.5272 1020.1154,-138.5487 1024.5287,-133.1152"/>
</g>
<!-- tx_spend_with_recovery&#45;&gt;frozen -->
<g id="edge20" class="edge">
<title>tx_spend_with_recovery&#45;&gt;frozen</title>
<path fill="none" stroke="#a020f0" d="M101.4213,-478.9334C111.7626,-459.1022 128.9423,-426.1577 144.3113,-396.6854"/>
<polygon fill="#a020f0" stroke="#a020f0" points="147.4928,-398.1538 149.0133,-387.6687 141.286,-394.9171 147.4928,-398.1538"/>
</g>
<!-- tx_revocation&#45;&gt;revoked -->
<g id="edge26" class="edge">
<title>tx_revocation&#45;&gt;revoked</title>
<path fill="none" stroke="#ff00ff" d="M960,-188.785C960,-181.3505 960,-172.1756 960,-162.2965"/>
<polygon fill="#ff00ff" stroke="#ff00ff" points="963.5001,-162.221 960,-152.221 956.5001,-162.2211 963.5001,-162.221"/>
</g>
<!-- tx_recovery&#45;&gt;valid_with_recovery_proof -->
<g id="edge23" class="edge">
<title>tx_recovery&#45;&gt;valid_with_recovery_proof</title>
<path fill="none" stroke="#666666" d="M307.6384,-516.1376C322.058,-528.3274 341.9557,-545.1481 363.0999,-563.0226"/>
<polygon fill="#666666" stroke="#666666" points="361.042,-565.866 370.9384,-569.649 365.5611,-560.5201 361.042,-565.866"/>
</g>
<!-- tx_update_simple&#45;&gt;valid_simple -->
<g id="edge12" class="edge">
<title>tx_update_simple&#45;&gt;valid_simple</title>
<path fill="none" stroke="#4060ff" d="M1173.7159,-515.4246C1171.6434,-523.1303 1168.6801,-532.7725 1165.1721,-543.4054"/>
<polygon fill="#4060ff" stroke="#4060ff" points="1161.8221,-542.3868 1161.9577,-552.9808 1168.4582,-544.6146 1161.8221,-542.3868"/>
</g>
<!-- tx_update_with_recovery_proof&#45;&gt;settling_to_with_recovery -->
<g id="edge6" class="edge">
<title>tx_update_with_recovery_proof&#45;&gt;settling_to_with_recovery</title>
<path fill="none" stroke="#4060ff" d="M588,-477.9828C588,-462.4741 588,-439.4215 588,-416.2846"/>
<polygon fill="#4060ff" stroke="#4060ff" points="591.5001,-416.0317 588,-406.0317 584.5001,-416.0317 591.5001,-416.0317"/>
</g>
<!-- tx_update_cross_to_simple_from_with_recovery&#45;&gt;settling_to_simple -->
<g id="edge10" class="edge">
<title>tx_update_cross_to_simple_from_with_recovery&#45;&gt;settling_to_simple</title>
<path fill="none" stroke="#4090ff" d="M822.8847,-477.9828C894.7742,-450.0162 1029.7236,-397.518 1115.2889,-364.2313"/>
<polygon fill="#4090ff" stroke="#4090ff" points="1116.647,-367.4585 1124.6977,-360.5711 1114.1091,-360.9348 1116.647,-367.4585"/>
</g>
<!-- tx_update_cross_to_with_recovery_from_simple&#45;&gt;valid_with_recovery_proof -->
<g id="edge14" class="edge">
<title>tx_update_cross_to_with_recovery_from_simple&#45;&gt;valid_with_recovery_proof</title>
<path fill="none" stroke="#4090ff" d="M897.1253,-516.0263C824.0044,-541.379 692.7015,-586.9048 596.6898,-620.1942"/>
<polygon fill="#4090ff" stroke="#4090ff" points="595.5208,-616.8951 587.2192,-623.4779 597.814,-623.5088 595.5208,-616.8951"/>
</g>
<!-- version -->
<g id="node18" class="node">
<title>version</title>
<text text-anchor="middle" x="1180" y="-72.3" font-family="Times,serif" font-size="14.00" fill="#888888">rendered 20170721 from commit 70ab2ee</text>
</g>
</g>
</svg>
